# MagicaVoxel @ Ephtracy

# group
o 

# material
mtllib Boy_head.mtl
usemtl palette

# normals
vn -1 0 0
vn 1 0 0
vn 0 0 1
vn 0 0 -1
vn 0 -1 0
vn 0 1 0

# texcoords
vt 0.0644531 0.5
vt 0.537109 0.5
vt 0.541016 0.5
vt 0.544922 0.5

# verts
v 0 0.7 -0.2
v 0 0.7 -0.3
v 0 0.8 -0.3
v 0 0.8 -0.4
v 0 0.8 -0.5
v 0 0.8 -0.6
v 0 0.9 -0.1
v 0 0.9 -0.2
v 0 0.9 -0.4
v 0 0.9 -0.5
v 0 1 0
v 0 1 -0.1
v 0 1.1 -0.5
v 0 1.1 -0.6
v 0 1.2 0
v 0 1.2 -0.5
v 0.1 0.5 0
v 0.1 0.5 -0.5
v 0.1 0.7 -0.2
v 0.1 0.7 -0.3
v 0.1 0.8 -0.3
v 0.1 0.8 -0.4
v 0.1 0.8 -0.5
v 0.1 0.9 -0.1
v 0.1 0.9 -0.2
v 0.1 0.9 -0.4
v 0.1 0.9 -0.5
v 0.1 1 0
v 0.1 1 -0.1
v 0.1 1.1 -0.5
v 0.1 1.1 -0.6
v 0.1 1.2 -0.5
v 0.1 1.2 -0.6
v 0.2 0.4 -0.1
v 0.2 0.4 -0.4
v 0.2 0.5 -0.1
v 0.2 0.5 -0.4
v 0.2 0.7 -0.5
v 0.2 0.7 -0.6
v 0.2 0.8 -0.5
v 0.2 0.8 -0.6
v 0.3 0.8 0.1
v 0.3 0.8 0
v 0.3 0.9 0.1
v 0.3 0.9 0
v 0.4 0.8 0.1
v 0.4 0.8 0
v 0.4 0.9 0.1
v 0.4 0.9 0
v 0.5 0.4 -0.1
v 0.5 0.4 -0.4
v 0.5 0.5 -0.1
v 0.5 0.5 -0.4
v 0.5 0.7 -0.5
v 0.5 0.7 -0.6
v 0.5 0.8 -0.5
v 0.5 0.8 -0.6
v 0.6 0.5 0
v 0.6 0.5 -0.5
v 0.6 0.7 -0.2
v 0.6 0.7 -0.3
v 0.6 0.8 -0.3
v 0.6 0.8 -0.4
v 0.6 0.8 -0.5
v 0.6 0.9 -0.1
v 0.6 0.9 -0.2
v 0.6 0.9 -0.4
v 0.6 0.9 -0.5
v 0.6 1 0
v 0.6 1 -0.1
v 0.6 1.1 -0.5
v 0.6 1.1 -0.6
v 0.6 1.2 -0.5
v 0.6 1.2 -0.6
v 0.7 0.7 -0.2
v 0.7 0.7 -0.3
v 0.7 0.8 -0.3
v 0.7 0.8 -0.4
v 0.7 0.8 -0.5
v 0.7 0.8 -0.6
v 0.7 0.9 -0.1
v 0.7 0.9 -0.2
v 0.7 0.9 -0.4
v 0.7 0.9 -0.5
v 0.7 1 0
v 0.7 1 -0.1
v 0.7 1.1 -0.5
v 0.7 1.1 -0.6
v 0.7 1.2 0
v 0.7 1.2 -0.5
v 0.3 0.8 0.1
v 0.3 0.9 0.1
v 0.4 0.8 0.1
v 0.4 0.9 0.1
v 0 1 0
v 0 1.2 0
v 0.1 0.5 0
v 0.1 1 0
v 0.1 1.1 0
v 0.2 0.9 0
v 0.2 1 0
v 0.3 0.6 0
v 0.3 0.7 0
v 0.3 0.8 0
v 0.3 0.9 0
v 0.3 1 0
v 0.4 0.6 0
v 0.4 0.7 0
v 0.4 0.8 0
v 0.4 0.9 0
v 0.4 1 0
v 0.5 0.9 0
v 0.5 1 0
v 0.6 0.5 0
v 0.6 1 0
v 0.6 1.1 0
v 0.7 1 0
v 0.7 1.2 0
v 0 0.9 -0.1
v 0 1 -0.1
v 0.1 0.9 -0.1
v 0.1 1 -0.1
v 0.2 0.4 -0.1
v 0.2 0.5 -0.1
v 0.5 0.4 -0.1
v 0.5 0.5 -0.1
v 0.6 0.9 -0.1
v 0.6 1 -0.1
v 0.7 0.9 -0.1
v 0.7 1 -0.1
v 0 0.7 -0.2
v 0 0.9 -0.2
v 0.1 0.7 -0.2
v 0.1 0.9 -0.2
v 0.6 0.7 -0.2
v 0.6 0.9 -0.2
v 0.7 0.7 -0.2
v 0.7 0.9 -0.2
v 0 0.8 -0.5
v 0 0.9 -0.5
v 0.1 0.8 -0.5
v 0.1 0.9 -0.5
v 0.6 0.8 -0.5
v 0.6 0.9 -0.5
v 0.7 0.8 -0.5
v 0.7 0.9 -0.5
v 0 0.7 -0.3
v 0 0.8 -0.3
v 0.1 0.7 -0.3
v 0.1 0.8 -0.3
v 0.6 0.7 -0.3
v 0.6 0.8 -0.3
v 0.7 0.7 -0.3
v 0.7 0.8 -0.3
v 0 0.8 -0.4
v 0 0.9 -0.4
v 0.1 0.8 -0.4
v 0.1 0.9 -0.4
v 0.2 0.4 -0.4
v 0.2 0.5 -0.4
v 0.5 0.4 -0.4
v 0.5 0.5 -0.4
v 0.6 0.8 -0.4
v 0.6 0.9 -0.4
v 0.7 0.8 -0.4
v 0.7 0.9 -0.4
v 0 1.1 -0.5
v 0 1.2 -0.5
v 0.1 0.5 -0.5
v 0.1 0.8 -0.5
v 0.1 1.1 -0.5
v 0.1 1.2 -0.5
v 0.2 0.7 -0.5
v 0.2 0.8 -0.5
v 0.5 0.7 -0.5
v 0.5 0.8 -0.5
v 0.6 0.5 -0.5
v 0.6 0.8 -0.5
v 0.6 1.1 -0.5
v 0.6 1.2 -0.5
v 0.7 1.1 -0.5
v 0.7 1.2 -0.5
v 0 0.8 -0.6
v 0 1.1 -0.6
v 0.1 1.1 -0.6
v 0.1 1.2 -0.6
v 0.2 0.7 -0.6
v 0.2 0.8 -0.6
v 0.5 0.7 -0.6
v 0.5 0.8 -0.6
v 0.6 1.1 -0.6
v 0.6 1.2 -0.6
v 0.7 0.8 -0.6
v 0.7 1.1 -0.6
v 0.2 0.4 -0.1
v 0.5 0.4 -0.1
v 0.2 0.4 -0.4
v 0.5 0.4 -0.4
v 0.1 0.5 0
v 0.6 0.5 0
v 0.2 0.5 -0.1
v 0.5 0.5 -0.1
v 0.2 0.5 -0.4
v 0.5 0.5 -0.4
v 0.1 0.5 -0.5
v 0.6 0.5 -0.5
v 0 0.7 -0.2
v 0.1 0.7 -0.2
v 0.6 0.7 -0.2
v 0.7 0.7 -0.2
v 0 0.7 -0.3
v 0.1 0.7 -0.3
v 0.6 0.7 -0.3
v 0.7 0.7 -0.3
v 0.2 0.7 -0.5
v 0.5 0.7 -0.5
v 0.2 0.7 -0.6
v 0.5 0.7 -0.6
v 0.3 0.8 0.1
v 0.4 0.8 0.1
v 0.3 0.8 0
v 0.4 0.8 0
v 0 0.8 -0.3
v 0.1 0.8 -0.3
v 0.6 0.8 -0.3
v 0.7 0.8 -0.3
v 0 0.8 -0.4
v 0.1 0.8 -0.4
v 0.6 0.8 -0.4
v 0.7 0.8 -0.4
v 0 0.8 -0.5
v 0.1 0.8 -0.5
v 0.2 0.8 -0.5
v 0.5 0.8 -0.5
v 0.6 0.8 -0.5
v 0.7 0.8 -0.5
v 0 0.8 -0.6
v 0.2 0.8 -0.6
v 0.5 0.8 -0.6
v 0.7 0.8 -0.6
v 0 0.9 -0.1
v 0.1 0.9 -0.1
v 0.6 0.9 -0.1
v 0.7 0.9 -0.1
v 0 0.9 -0.2
v 0.1 0.9 -0.2
v 0.6 0.9 -0.2
v 0.7 0.9 -0.2
v 0 0.9 -0.4
v 0.1 0.9 -0.4
v 0.6 0.9 -0.4
v 0.7 0.9 -0.4
v 0 0.9 -0.5
v 0.1 0.9 -0.5
v 0.6 0.9 -0.5
v 0.7 0.9 -0.5
v 0 1 0
v 0.1 1 0
v 0.6 1 0
v 0.7 1 0
v 0 1 -0.1
v 0.1 1 -0.1
v 0.6 1 -0.1
v 0.7 1 -0.1
v 0.3 0.9 0.1
v 0.4 0.9 0.1
v 0.3 0.9 0
v 0.4 0.9 0
v 0 1.1 -0.5
v 0.1 1.1 -0.5
v 0.6 1.1 -0.5
v 0.7 1.1 -0.5
v 0 1.1 -0.6
v 0.1 1.1 -0.6
v 0.6 1.1 -0.6
v 0.7 1.1 -0.6
v 0 1.2 0
v 0.7 1.2 0
v 0 1.2 -0.5
v 0.1 1.2 -0.5
v 0.6 1.2 -0.5
v 0.7 1.2 -0.5
v 0.1 1.2 -0.6
v 0.6 1.2 -0.6

# faces
f 3/2/1 2/2/1 1/2/1
f 8/2/1 3/2/1 1/2/1
f 8/2/1 4/2/1 3/2/1
f 9/2/1 4/2/1 8/2/1
f 10/1/1 6/1/1 5/1/1
f 12/1/1 9/1/1 8/1/1
f 12/1/1 10/1/1 9/1/1
f 12/1/1 8/1/1 7/1/1
f 13/1/1 6/1/1 10/1/1
f 13/1/1 12/1/1 11/1/1
f 13/1/1 10/1/1 12/1/1
f 14/1/1 6/1/1 13/1/1
f 15/1/1 13/1/1 11/1/1
f 16/1/1 13/1/1 15/1/1
f 19/2/1 18/2/1 17/2/1
f 20/2/1 18/2/1 19/2/1
f 21/2/1 18/2/1 20/2/1
f 22/2/1 18/2/1 21/2/1
f 23/2/1 18/2/1 22/2/1
f 24/2/1 19/2/1 17/2/1
f 25/2/1 19/2/1 24/2/1
f 26/2/1 23/2/1 22/2/1
f 27/2/1 23/2/1 26/2/1
f 28/2/1 24/2/1 17/2/1
f 29/2/1 24/2/1 28/2/1
f 32/1/1 31/1/1 30/1/1
f 33/1/1 31/1/1 32/1/1
f 36/2/1 35/2/1 34/2/1
f 37/2/1 35/2/1 36/2/1
f 40/1/1 39/1/1 38/1/1
f 41/1/1 39/1/1 40/1/1
f 44/2/1 43/2/1 42/2/1
f 45/2/1 43/2/1 44/2/1
f 46/2/2 47/2/2 48/2/2
f 48/2/2 47/2/2 49/2/2
f 50/2/2 51/2/2 52/2/2
f 52/2/2 51/2/2 53/2/2
f 54/1/2 55/1/2 56/1/2
f 56/1/2 55/1/2 57/1/2
f 58/2/2 59/2/2 60/2/2
f 60/2/2 59/2/2 61/2/2
f 61/2/2 59/2/2 62/2/2
f 62/2/2 59/2/2 63/2/2
f 63/2/2 59/2/2 64/2/2
f 58/2/2 60/2/2 65/2/2
f 65/2/2 60/2/2 66/2/2
f 63/2/2 64/2/2 67/2/2
f 67/2/2 64/2/2 68/2/2
f 58/2/2 65/2/2 69/2/2
f 69/2/2 65/2/2 70/2/2
f 71/1/2 72/1/2 73/1/2
f 73/1/2 72/1/2 74/1/2
f 75/2/2 76/2/2 77/2/2
f 75/2/2 77/2/2 82/2/2
f 77/2/2 78/2/2 82/2/2
f 82/2/2 78/2/2 83/2/2
f 79/1/2 80/1/2 84/1/2
f 82/1/2 83/1/2 86/1/2
f 83/1/2 84/1/2 86/1/2
f 81/1/2 82/1/2 86/1/2
f 84/1/2 80/1/2 87/1/2
f 85/1/2 86/1/2 87/1/2
f 86/1/2 84/1/2 87/1/2
f 87/1/2 80/1/2 88/1/2
f 85/1/2 87/1/2 89/1/2
f 89/1/2 87/1/2 90/1/2
f 93/2/3 92/2/3 91/2/3
f 94/2/3 92/2/3 93/2/3
f 98/1/3 96/1/3 95/1/3
f 99/1/3 96/1/3 98/1/3
f 100/2/3 98/2/3 97/2/3
f 100/2/3 99/2/3 98/2/3
f 101/2/3 99/2/3 100/2/3
f 102/2/3 100/2/3 97/2/3
f 103/2/3 100/2/3 102/2/3
f 104/2/3 100/2/3 103/2/3
f 105/4/3 101/4/3 100/4/3
f 105/2/3 100/2/3 104/2/3
f 106/2/3 99/2/3 101/2/3
f 106/4/3 101/4/3 105/4/3
f 107/2/3 102/2/3 97/2/3
f 107/3/3 103/3/3 102/3/3
f 108/2/3 104/2/3 103/2/3
f 108/3/3 103/3/3 107/3/3
f 109/2/3 104/2/3 108/2/3
f 110/2/3 106/2/3 105/2/3
f 111/2/3 99/2/3 106/2/3
f 111/2/3 106/2/3 110/2/3
f 112/2/3 110/2/3 109/2/3
f 112/2/3 109/2/3 108/2/3
f 112/4/3 111/4/3 110/4/3
f 112/2/3 108/2/3 107/2/3
f 113/2/3 99/2/3 111/2/3
f 113/4/3 111/4/3 112/4/3
f 114/2/3 112/2/3 107/2/3
f 114/2/3 107/2/3 97/2/3
f 114/2/3 113/2/3 112/2/3
f 115/2/3 99/2/3 113/2/3
f 115/2/3 113/2/3 114/2/3
f 116/1/3 96/1/3 99/1/3
f 116/2/3 99/2/3 115/2/3
f 117/1/3 116/1/3 115/1/3
f 118/1/3 96/1/3 116/1/3
f 118/1/3 116/1/3 117/1/3
f 121/1/3 120/1/3 119/1/3
f 122/1/3 120/1/3 121/1/3
f 125/2/3 124/2/3 123/2/3
f 126/2/3 124/2/3 125/2/3
f 129/1/3 128/1/3 127/1/3
f 130/1/3 128/1/3 129/1/3
f 133/2/3 132/2/3 131/2/3
f 134/2/3 132/2/3 133/2/3
f 137/2/3 136/2/3 135/2/3
f 138/2/3 136/2/3 137/2/3
f 141/1/3 140/1/3 139/1/3
f 142/1/3 140/1/3 141/1/3
f 145/1/3 144/1/3 143/1/3
f 146/1/3 144/1/3 145/1/3
f 147/2/4 148/2/4 149/2/4
f 149/2/4 148/2/4 150/2/4
f 151/2/4 152/2/4 153/2/4
f 153/2/4 152/2/4 154/2/4
f 155/2/4 156/2/4 157/2/4
f 157/2/4 156/2/4 158/2/4
f 159/2/4 160/2/4 161/2/4
f 161/2/4 160/2/4 162/2/4
f 163/2/4 164/2/4 165/2/4
f 165/2/4 164/2/4 166/2/4
f 167/1/4 168/1/4 171/1/4
f 171/1/4 168/1/4 172/1/4
f 169/2/4 170/2/4 173/2/4
f 173/2/4 170/2/4 174/2/4
f 169/2/4 173/2/4 175/2/4
f 169/2/4 175/2/4 177/2/4
f 175/2/4 176/2/4 177/2/4
f 177/2/4 176/2/4 178/2/4
f 179/1/4 180/1/4 181/1/4
f 181/1/4 180/1/4 182/1/4
f 183/1/4 184/1/4 185/1/4
f 183/1/4 185/1/4 188/1/4
f 185/1/4 186/1/4 188/1/4
f 187/1/4 188/1/4 189/1/4
f 188/1/4 186/1/4 190/1/4
f 189/1/4 188/1/4 190/1/4
f 190/1/4 186/1/4 191/1/4
f 191/1/4 186/1/4 192/1/4
f 190/1/4 191/1/4 193/1/4
f 193/1/4 191/1/4 194/1/4
f 197/2/5 196/2/5 195/2/5
f 198/2/5 196/2/5 197/2/5
f 201/2/5 200/2/5 199/2/5
f 202/2/5 200/2/5 201/2/5
f 203/2/5 201/2/5 199/2/5
f 204/2/5 200/2/5 202/2/5
f 205/2/5 203/2/5 199/2/5
f 205/2/5 204/2/5 203/2/5
f 206/2/5 200/2/5 204/2/5
f 206/2/5 204/2/5 205/2/5
f 211/2/5 208/2/5 207/2/5
f 212/2/5 208/2/5 211/2/5
f 213/2/5 210/2/5 209/2/5
f 214/2/5 210/2/5 213/2/5
f 217/1/5 216/1/5 215/1/5
f 218/1/5 216/1/5 217/1/5
f 221/2/5 220/2/5 219/2/5
f 222/2/5 220/2/5 221/2/5
f 227/2/5 224/2/5 223/2/5
f 228/2/5 224/2/5 227/2/5
f 229/2/5 226/2/5 225/2/5
f 230/2/5 226/2/5 229/2/5
f 237/1/5 232/1/5 231/1/5
f 237/1/5 233/1/5 232/1/5
f 238/1/5 233/1/5 237/1/5
f 239/1/5 236/1/5 235/1/5
f 239/1/5 235/1/5 234/1/5
f 240/1/5 236/1/5 239/1/5
f 245/1/5 242/1/5 241/1/5
f 246/1/5 242/1/5 245/1/5
f 247/1/5 244/1/5 243/1/5
f 248/1/5 244/1/5 247/1/5
f 253/1/5 250/1/5 249/1/5
f 254/1/5 250/1/5 253/1/5
f 255/1/5 252/1/5 251/1/5
f 256/1/5 252/1/5 255/1/5
f 261/1/5 258/1/5 257/1/5
f 262/1/5 258/1/5 261/1/5
f 263/1/5 260/1/5 259/1/5
f 264/1/5 260/1/5 263/1/5
f 265/2/6 266/2/6 267/2/6
f 267/2/6 266/2/6 268/2/6
f 269/1/6 270/1/6 273/1/6
f 273/1/6 270/1/6 274/1/6
f 271/1/6 272/1/6 275/1/6
f 275/1/6 272/1/6 276/1/6
f 277/1/6 278/1/6 279/1/6
f 279/1/6 278/1/6 280/1/6
f 280/1/6 278/1/6 281/1/6
f 281/1/6 278/1/6 282/1/6
f 280/1/6 281/1/6 283/1/6
f 283/1/6 281/1/6 284/1/6
