# MagicaVoxel @ Ephtracy

# group
o 

# material
mtllib Boy_body.mtl
usemtl palette

# normals
vn -1 0 0
vn 1 0 0
vn 0 0 1
vn 0 0 -1
vn 0 -1 0
vn 0 1 0

# texcoords
vt 0.322266 0.5
vt 0.376953 0.5
vt 0.380859 0.5
vt 0.537109 0.5

# verts
v -0.4 0 0.4
v -0.4 0 -0.3
v -0.4 0.5 0.4
v -0.4 0.5 -0.3
v -0.4 0.7 0.4
v -0.4 0.7 -0.3
v -0.4 1.1 0.4
v -0.4 1.1 -0.3
v -0.4 1.3 0.4
v -0.4 1.3 -0.3
v 0.1 0 0.4
v 0.1 0 0.3
v 0.1 0 -0.2
v 0.1 0 -0.3
v 0.1 0.1 0.4
v 0.1 0.1 0.3
v 0.1 0.1 -0.2
v 0.1 0.1 -0.3
v 0 0 0.4
v 0 0 0.3
v 0 0 -0.2
v 0 0 -0.3
v 0 0.1 0.4
v 0 0.1 0.3
v 0 0.1 -0.2
v 0 0.1 -0.3
v 0.5 0 0.4
v 0.5 0 -0.3
v 0.5 0.5 0.4
v 0.5 0.5 -0.3
v 0.5 0.7 0.4
v 0.5 0.7 -0.3
v 0.5 1.1 0.4
v 0.5 1.1 -0.3
v 0.5 1.3 0.4
v 0.5 1.3 -0.3
v -0.4 0 0.4
v -0.4 0.5 0.4
v -0.4 0.7 0.4
v -0.4 1.1 0.4
v -0.4 1.3 0.4
v -0.3 1.1 0.4
v -0.3 1.3 0.4
v -0.2 1.2 0.4
v -0.2 1.3 0.4
v -0.1 1.1 0.4
v -0.1 1.2 0.4
v 0 0 0.4
v 0 0.1 0.4
v 0 0.5 0.4
v 0 0.7 0.4
v 0 1 0.4
v 0 1.1 0.4
v 0.1 0 0.4
v 0.1 0.1 0.4
v 0.1 0.5 0.4
v 0.1 0.7 0.4
v 0.1 1 0.4
v 0.1 1.1 0.4
v 0.2 1.1 0.4
v 0.2 1.2 0.4
v 0.3 1.2 0.4
v 0.3 1.3 0.4
v 0.4 1.1 0.4
v 0.4 1.3 0.4
v 0.5 0 0.4
v 0.5 0.5 0.4
v 0.5 0.7 0.4
v 0.5 1.1 0.4
v 0.5 1.3 0.4
v 0 0 0.3
v 0 0.1 0.3
v 0.1 0 0.3
v 0.1 0.1 0.3
v 0 0 -0.2
v 0 0.1 -0.2
v 0.1 0 -0.2
v 0.1 0.1 -0.2
v -0.4 0 -0.3
v -0.4 0.5 -0.3
v -0.4 0.7 -0.3
v -0.4 1.1 -0.3
v -0.4 1.3 -0.3
v -0.3 1.1 -0.3
v -0.3 1.3 -0.3
v -0.2 1.2 -0.3
v -0.2 1.3 -0.3
v -0.1 1.1 -0.3
v -0.1 1.2 -0.3
v 0 0 -0.3
v 0 0.1 -0.3
v 0 1 -0.3
v 0 1.1 -0.3
v 0.1 0 -0.3
v 0.1 0.1 -0.3
v 0.1 1 -0.3
v 0.1 1.1 -0.3
v 0.2 1.1 -0.3
v 0.2 1.2 -0.3
v 0.3 1.2 -0.3
v 0.3 1.3 -0.3
v 0.4 1.1 -0.3
v 0.4 1.3 -0.3
v 0.5 0 -0.3
v 0.5 0.5 -0.3
v 0.5 0.7 -0.3
v 0.5 1.1 -0.3
v 0.5 1.3 -0.3
v -0.4 0 0.4
v 0 0 0.4
v 0.1 0 0.4
v 0.5 0 0.4
v 0 0 0.3
v 0.1 0 0.3
v 0 0 -0.2
v 0.1 0 -0.2
v -0.4 0 -0.3
v 0 0 -0.3
v 0.1 0 -0.3
v 0.5 0 -0.3
v 0 0.1 0.4
v 0.1 0.1 0.4
v 0 0.1 0.3
v 0.1 0.1 0.3
v 0 0.1 -0.2
v 0.1 0.1 -0.2
v 0 0.1 -0.3
v 0.1 0.1 -0.3
v -0.4 1.3 0.4
v -0.3 1.3 0.4
v -0.2 1.3 0.4
v 0.3 1.3 0.4
v 0.4 1.3 0.4
v 0.5 1.3 0.4
v -0.4 1.3 -0.3
v -0.3 1.3 -0.3
v -0.2 1.3 -0.3
v 0.3 1.3 -0.3
v 0.4 1.3 -0.3
v 0.5 1.3 -0.3

# faces
f 3/3/1 2/3/1 1/3/1
f 4/3/1 2/3/1 3/3/1
f 5/2/1 4/2/1 3/2/1
f 6/2/1 4/2/1 5/2/1
f 7/3/1 6/3/1 5/3/1
f 8/3/1 6/3/1 7/3/1
f 9/4/1 8/4/1 7/4/1
f 10/4/1 8/4/1 9/4/1
f 15/3/1 12/3/1 11/3/1
f 16/3/1 12/3/1 15/3/1
f 17/3/1 14/3/1 13/3/1
f 18/3/1 14/3/1 17/3/1
f 19/3/2 20/3/2 23/3/2
f 23/3/2 20/3/2 24/3/2
f 21/3/2 22/3/2 25/3/2
f 25/3/2 22/3/2 26/3/2
f 27/3/2 28/3/2 29/3/2
f 29/3/2 28/3/2 30/3/2
f 29/2/2 30/2/2 31/2/2
f 31/2/2 30/2/2 32/2/2
f 31/3/2 32/3/2 33/3/2
f 33/3/2 32/3/2 34/3/2
f 33/4/2 34/4/2 35/4/2
f 35/4/2 34/4/2 36/4/2
f 42/3/3 40/3/3 39/3/3
f 42/4/3 41/4/3 40/4/3
f 43/4/3 41/4/3 42/4/3
f 44/3/3 43/3/3 42/3/3
f 45/3/3 43/3/3 44/3/3
f 46/3/3 42/3/3 39/3/3
f 46/3/3 44/3/3 42/3/3
f 47/4/3 45/4/3 44/4/3
f 47/3/3 44/3/3 46/3/3
f 48/3/3 38/3/3 37/3/3
f 49/3/3 38/3/3 48/3/3
f 50/2/3 39/2/3 38/2/3
f 50/3/3 38/3/3 49/3/3
f 51/3/3 46/3/3 39/3/3
f 51/2/3 39/2/3 50/2/3
f 52/3/3 46/3/3 51/3/3
f 53/4/3 47/4/3 46/4/3
f 53/3/3 46/3/3 52/3/3
f 55/3/3 50/3/3 49/3/3
f 56/1/3 51/1/3 50/1/3
f 56/3/3 50/3/3 55/3/3
f 57/3/3 52/3/3 51/3/3
f 57/1/3 51/1/3 56/1/3
f 58/4/3 53/4/3 52/4/3
f 58/3/3 52/3/3 57/3/3
f 59/4/3 47/4/3 53/4/3
f 59/4/3 53/4/3 58/4/3
f 60/3/3 58/3/3 57/3/3
f 60/4/3 47/4/3 59/4/3
f 60/3/3 59/3/3 58/3/3
f 61/4/3 45/4/3 47/4/3
f 61/4/3 47/4/3 60/4/3
f 62/3/3 61/3/3 60/3/3
f 62/4/3 45/4/3 61/4/3
f 63/4/3 45/4/3 62/4/3
f 64/3/3 60/3/3 57/3/3
f 64/3/3 62/3/3 60/3/3
f 64/3/3 63/3/3 62/3/3
f 65/3/3 63/3/3 64/3/3
f 66/3/3 56/3/3 55/3/3
f 66/3/3 55/3/3 54/3/3
f 67/2/3 57/2/3 56/2/3
f 67/3/3 56/3/3 66/3/3
f 68/3/3 64/3/3 57/3/3
f 68/2/3 57/2/3 67/2/3
f 69/4/3 65/4/3 64/4/3
f 69/3/3 64/3/3 68/3/3
f 70/4/3 65/4/3 69/4/3
f 73/3/3 72/3/3 71/3/3
f 74/3/3 72/3/3 73/3/3
f 75/3/4 76/3/4 77/3/4
f 77/3/4 76/3/4 78/3/4
f 81/3/4 82/3/4 84/3/4
f 82/4/4 83/4/4 84/4/4
f 84/4/4 83/4/4 85/4/4
f 84/3/4 85/3/4 86/3/4
f 86/3/4 85/3/4 87/3/4
f 81/3/4 84/3/4 88/3/4
f 84/3/4 86/3/4 88/3/4
f 86/4/4 87/4/4 89/4/4
f 88/3/4 86/3/4 89/3/4
f 79/3/4 80/3/4 90/3/4
f 90/3/4 80/3/4 91/3/4
f 81/3/4 88/3/4 92/3/4
f 88/4/4 89/4/4 93/4/4
f 92/3/4 88/3/4 93/3/4
f 91/3/4 80/3/4 95/3/4
f 92/4/4 93/4/4 96/4/4
f 81/3/4 92/3/4 96/3/4
f 93/4/4 89/4/4 97/4/4
f 96/4/4 93/4/4 97/4/4
f 96/3/4 97/3/4 98/3/4
f 97/4/4 89/4/4 98/4/4
f 89/4/4 87/4/4 99/4/4
f 98/4/4 89/4/4 99/4/4
f 98/3/4 99/3/4 100/3/4
f 99/4/4 87/4/4 100/4/4
f 100/4/4 87/4/4 101/4/4
f 96/3/4 98/3/4 102/3/4
f 98/3/4 100/3/4 102/3/4
f 100/3/4 101/3/4 102/3/4
f 102/3/4 101/3/4 103/3/4
f 94/3/4 95/3/4 104/3/4
f 80/2/4 81/2/4 105/2/4
f 104/3/4 95/3/4 105/3/4
f 95/3/4 80/3/4 105/3/4
f 81/3/4 96/3/4 106/3/4
f 105/2/4 81/2/4 106/2/4
f 96/3/4 102/3/4 106/3/4
f 102/4/4 103/4/4 107/4/4
f 106/3/4 102/3/4 107/3/4
f 107/4/4 103/4/4 108/4/4
f 113/3/5 110/3/5 109/3/5
f 114/3/5 112/3/5 111/3/5
f 115/3/5 113/3/5 109/3/5
f 115/3/5 114/3/5 113/3/5
f 116/3/5 112/3/5 114/3/5
f 116/3/5 114/3/5 115/3/5
f 117/3/5 115/3/5 109/3/5
f 118/3/5 115/3/5 117/3/5
f 119/3/5 112/3/5 116/3/5
f 120/3/5 112/3/5 119/3/5
f 123/3/5 122/3/5 121/3/5
f 124/3/5 122/3/5 123/3/5
f 127/3/5 126/3/5 125/3/5
f 128/3/5 126/3/5 127/3/5
f 129/4/6 130/4/6 135/4/6
f 130/3/6 131/3/6 136/3/6
f 135/4/6 130/4/6 136/4/6
f 131/4/6 132/4/6 137/4/6
f 136/3/6 131/3/6 137/3/6
f 132/3/6 133/3/6 138/3/6
f 137/4/6 132/4/6 138/4/6
f 133/4/6 134/4/6 139/4/6
f 138/3/6 133/3/6 139/3/6
f 139/4/6 134/4/6 140/4/6
