# MagicaVoxel @ Ephtracy

# group
o 

# material
mtllib Monah_hand.mtl
usemtl palette

# normals
vn 0 0 -1
vn 0 0 1
vn -1 0 0
vn 1 0 0
vn 0 -1 0
vn 0 1 0

# texcoords
vt 0.0410156 0.5
vt 0.322266 0.5
vt 0.537109 0.5

# verts
v 0 -0.1 -0.1
v 0.3 -0.1 -0.1
v 0.3 0 -0.1
v 0.4 0 -0.1
v 0.2 0.1 -0.1
v 0.4 0.1 -0.1
v 0 0.2 -0.1
v 0.2 0.2 -0.1
v 0.3 -0.1 0
v 0.4 -0.1 0
v 0.3 0 0
v 0.4 0 0
v 0.2 -1.6 0.4
v 0.4 -1.6 0.4
v 0.3 -1.5 0.4
v 0.4 -1.5 0.4
v 0.3 -1.2 0.4
v 0.4 -1.2 0.4
v 0.2 -1.1 0.4
v 0.3 -1.1 0.4
v 0.2 -1 0.4
v 0.3 -1 0.4
v 0.2 -0.9 0.4
v 0.3 -0.9 0.4
v 0.2 -0.8 0.4
v 0.3 -0.8 0.4
v 0.3 -0.7 0.4
v 0.4 -0.7 0.4
v 0.3 -0.4 0.4
v 0.4 -0.4 0.4
v 0.2 -0.3 0.4
v 0.3 -0.3 0.4
v 0.2 -0.2 0.4
v 0.3 -0.2 0.4
v 0.2 -0.1 0.4
v 0.4 -0.1 0.4
v 0.2 0.1 0.4
v 0.3 0.1 0.4
v 0.2 0.2 0.4
v 0.3 0.2 0.4
v 0.4 0.2 0.4
v 0.2 0.3 0.4
v 0.3 0.3 0.4
v 0.3 0.4 0.4
v 0.4 0.4 0.4
v 0.1 0.7 0.4
v 0.2 0.7 0.4
v 0.3 0.7 0.4
v 0.4 0.7 0.4
v 0.2 0.8 0.4
v 0.3 0.8 0.4
v -0.1 0.9 0.4
v 0 0.9 0.4
v 0.1 0.9 0.4
v 0.2 0.9 0.4
v 0 1 0.4
v 0.1 1 0.4
v 0.3 1 0.4
v -0.1 1.1 0.4
v 0.4 1.1 0.4
v 0 0.1 0
v 0.2 0.1 0
v 0 0.2 0
v 0.2 0.2 0
v 0 -0.1 0.1
v 0.2 -0.1 0.1
v 0 0.1 0.1
v 0.2 0.1 0.1
v 0.2 -1.6 0.6
v 0.4 -1.6 0.6
v 0.3 -1.5 0.6
v 0.4 -1.5 0.6
v 0.3 -1.2 0.6
v 0.4 -1.2 0.6
v 0.2 -1.1 0.6
v 0.3 -1.1 0.6
v 0.2 -1 0.6
v 0.3 -1 0.6
v 0.2 -0.9 0.6
v 0.3 -0.9 0.6
v 0.2 -0.8 0.6
v 0.3 -0.8 0.6
v 0.3 -0.7 0.6
v 0.4 -0.7 0.6
v 0.3 -0.4 0.6
v 0.4 -0.4 0.6
v 0.2 -0.3 0.6
v 0.3 -0.3 0.6
v 0.2 -0.2 0.6
v 0.3 -0.2 0.6
v 0.2 -0.1 0.6
v 0.4 -0.1 0.6
v 0.2 0.1 0.6
v 0.3 0.1 0.6
v 0.4 0.1 0.6
v 0.2 0.2 0.6
v 0.3 0.2 0.6
v 0.4 0.2 0.6
v 0.2 0.3 0.6
v 0.3 0.3 0.6
v 0.3 0.4 0.6
v 0.4 0.4 0.6
v 0.1 0.7 0.6
v 0.2 0.7 0.6
v 0.3 0.7 0.6
v 0.4 0.7 0.6
v 0.2 0.8 0.6
v 0.3 0.8 0.6
v -0.1 0.9 0.6
v 0 0.9 0.6
v 0.1 0.9 0.6
v 0.2 0.9 0.6
v 0 1 0.6
v 0.1 1 0.6
v 0.3 1 0.6
v -0.1 1.1 0.6
v 0.4 1.1 0.6
v -0.1 0.9 0.4
v -0.1 1.1 0.4
v -0.1 0.9 0.6
v -0.1 1.1 0.6
v 0 -0.1 -0.1
v 0 0.2 -0.1
v 0 0.1 0
v 0 0.2 0
v 0 -0.1 0.1
v 0 0.1 0.1
v 0.1 0.7 0.4
v 0.1 0.9 0.4
v 0.1 0.7 0.6
v 0.1 0.9 0.6
v 0.2 -0.1 0.1
v 0.2 0.1 0.1
v 0.2 -1.6 0.4
v 0.2 -1.1 0.4
v 0.2 -1 0.4
v 0.2 -0.9 0.4
v 0.2 -0.8 0.4
v 0.2 -0.3 0.4
v 0.2 -0.2 0.4
v 0.2 -0.1 0.4
v 0.2 0.1 0.4
v 0.2 0.2 0.4
v 0.2 0.3 0.4
v 0.2 0.7 0.4
v 0.2 -0.1 0.5
v 0.2 0.1 0.5
v 0.2 -1.6 0.6
v 0.2 -1.1 0.6
v 0.2 -1 0.6
v 0.2 -0.9 0.6
v 0.2 -0.8 0.6
v 0.2 -0.3 0.6
v 0.2 -0.2 0.6
v 0.2 -0.1 0.6
v 0.2 0.1 0.6
v 0.2 0.2 0.6
v 0.2 0.3 0.6
v 0.2 0.7 0.6
v 0.3 -1.1 0.4
v 0.3 -1 0.4
v 0.3 -0.9 0.4
v 0.3 -0.8 0.4
v 0.3 -0.3 0.4
v 0.3 -0.2 0.4
v 0.3 0.2 0.4
v 0.3 0.3 0.4
v 0.3 0.8 0.4
v 0.3 1 0.4
v 0.3 -1.1 0.6
v 0.3 -1 0.6
v 0.3 -0.9 0.6
v 0.3 -0.8 0.6
v 0.3 -0.3 0.6
v 0.3 -0.2 0.6
v 0.3 0.2 0.6
v 0.3 0.3 0.6
v 0.3 0.8 0.6
v 0.3 1 0.6
v 0.1 0.9 0.4
v 0.1 1 0.4
v 0.1 0.9 0.6
v 0.1 1 0.6
v 0.2 0.1 -0.1
v 0.2 0.2 -0.1
v 0.2 0.1 0
v 0.2 0.2 0
v 0.2 0.8 0.4
v 0.2 0.9 0.4
v 0.2 0.8 0.6
v 0.2 0.9 0.6
v 0.3 -0.1 -0.1
v 0.3 0 -0.1
v 0.3 -0.1 0
v 0.3 0 0
v 0.3 -1.5 0.4
v 0.3 -1.2 0.4
v 0.3 -0.7 0.4
v 0.3 -0.4 0.4
v 0.3 0.1 0.4
v 0.3 0.2 0.4
v 0.3 0.4 0.4
v 0.3 0.7 0.4
v 0.3 -1.5 0.6
v 0.3 -1.2 0.6
v 0.3 -0.7 0.6
v 0.3 -0.4 0.6
v 0.3 0.1 0.6
v 0.3 0.2 0.6
v 0.3 0.4 0.6
v 0.3 0.7 0.6
v 0.4 0 -0.1
v 0.4 0.1 -0.1
v 0.4 -0.1 0
v 0.4 0 0
v 0.4 -1.6 0.4
v 0.4 -1.5 0.4
v 0.4 -1.2 0.4
v 0.4 -0.7 0.4
v 0.4 -0.4 0.4
v 0.4 -0.1 0.4
v 0.4 0.2 0.4
v 0.4 0.4 0.4
v 0.4 0.7 0.4
v 0.4 1.1 0.4
v 0.4 -1.6 0.6
v 0.4 -1.5 0.6
v 0.4 -1.2 0.6
v 0.4 -0.7 0.6
v 0.4 -0.4 0.6
v 0.4 -0.1 0.6
v 0.4 0.1 0.6
v 0.4 0.2 0.6
v 0.4 0.4 0.6
v 0.4 0.7 0.6
v 0.4 1.1 0.6
v 0.2 -1.6 0.4
v 0.2 -1.6 0.6
v 0.4 -1.6 0.4
v 0.4 -1.6 0.6
v 0.3 -1.2 0.4
v 0.3 -1.2 0.6
v 0.4 -1.2 0.4
v 0.4 -1.2 0.6
v 0.2 -1 0.4
v 0.2 -1 0.6
v 0.3 -1 0.4
v 0.3 -1 0.6
v 0.2 -0.8 0.4
v 0.2 -0.8 0.6
v 0.3 -0.8 0.4
v 0.3 -0.8 0.6
v 0.3 -0.4 0.4
v 0.3 -0.4 0.6
v 0.4 -0.4 0.4
v 0.4 -0.4 0.6
v 0.2 -0.2 0.4
v 0.2 -0.2 0.6
v 0.3 -0.2 0.4
v 0.3 -0.2 0.6
v 0 -0.1 -0.1
v 0 -0.1 0.1
v 0.2 -0.1 0.1
v 0.2 -0.1 0.4
v 0.3 -0.1 -0.1
v 0.3 -0.1 0
v 0.4 -0.1 0
v 0.4 -0.1 0.4
v 0.3 0 -0.1
v 0.3 0 0
v 0.4 0 -0.1
v 0.4 0 0
v 0.3 0.2 0.4
v 0.3 0.2 0.6
v 0.4 0.2 0.4
v 0.4 0.2 0.6
v 0.2 0.3 0.4
v 0.2 0.3 0.6
v 0.3 0.3 0.4
v 0.3 0.3 0.6
v 0.1 0.7 0.4
v 0.1 0.7 0.6
v 0.2 0.7 0.4
v 0.2 0.7 0.6
v 0.3 0.7 0.4
v 0.3 0.7 0.6
v 0.4 0.7 0.4
v 0.4 0.7 0.6
v -0.1 0.9 0.4
v -0.1 0.9 0.6
v 0 0.9 0.4
v 0 0.9 0.6
v 0.1 0.9 0.4
v 0.1 0.9 0.6
v 0.1 1 0.4
v 0.1 1 0.6
v 0.3 1 0.4
v 0.3 1 0.6
v 0.3 -1.5 0.4
v 0.3 -1.5 0.6
v 0.4 -1.5 0.4
v 0.4 -1.5 0.6
v 0.2 -1.1 0.4
v 0.2 -1.1 0.6
v 0.3 -1.1 0.4
v 0.3 -1.1 0.6
v 0.2 -0.9 0.4
v 0.2 -0.9 0.6
v 0.3 -0.9 0.4
v 0.3 -0.9 0.6
v 0.3 -0.7 0.4
v 0.3 -0.7 0.6
v 0.4 -0.7 0.4
v 0.4 -0.7 0.6
v 0.2 -0.3 0.4
v 0.2 -0.3 0.6
v 0.3 -0.3 0.4
v 0.3 -0.3 0.6
v 0 0.1 0
v 0 0.1 0.1
v 0.2 0.1 -0.1
v 0.2 0.1 0
v 0.2 0.1 0.1
v 0.2 0.1 0.4
v 0.3 0.1 0.4
v 0.3 0.1 0.6
v 0.4 0.1 -0.1
v 0.4 0.1 0.6
v 0 0.2 -0.1
v 0 0.2 0
v 0.2 0.2 -0.1
v 0.2 0.2 0
v 0.2 0.2 0.4
v 0.2 0.2 0.6
v 0.3 0.2 0.4
v 0.3 0.2 0.6
v 0.3 0.4 0.4
v 0.3 0.4 0.6
v 0.4 0.4 0.4
v 0.4 0.4 0.6
v 0.2 0.8 0.4
v 0.2 0.8 0.6
v 0.3 0.8 0.4
v 0.3 0.8 0.6
v 0.1 0.9 0.4
v 0.1 0.9 0.6
v 0.2 0.9 0.4
v 0.2 0.9 0.6
v -0.1 1.1 0.4
v -0.1 1.1 0.6
v 0.4 1.1 0.4
v 0.4 1.1 0.6

# faces
f 3/3/1 2/3/1 1/3/1
f 5/3/1 3/3/1 1/3/1
f 5/3/1 4/3/1 3/3/1
f 6/3/1 4/3/1 5/3/1
f 7/3/1 5/3/1 1/3/1
f 8/3/1 5/3/1 7/3/1
f 11/3/1 10/3/1 9/3/1
f 12/3/1 10/3/1 11/3/1
f 15/2/1 14/2/1 13/2/1
f 16/2/1 14/2/1 15/2/1
f 17/2/1 15/2/1 13/2/1
f 19/2/1 17/2/1 13/2/1
f 19/2/1 18/2/1 17/2/1
f 20/2/1 18/2/1 19/2/1
f 22/2/1 18/2/1 20/2/1
f 23/2/1 22/2/1 21/2/1
f 24/2/1 18/2/1 22/2/1
f 24/2/1 22/2/1 23/2/1
f 26/2/1 18/2/1 24/2/1
f 27/2/1 18/2/1 26/2/1
f 27/2/1 26/2/1 25/2/1
f 28/2/1 18/2/1 27/2/1
f 29/2/1 27/2/1 25/2/1
f 31/2/1 29/2/1 25/2/1
f 31/2/1 30/2/1 29/2/1
f 32/2/1 30/2/1 31/2/1
f 34/2/1 30/2/1 32/2/1
f 35/2/1 34/2/1 33/2/1
f 36/2/1 30/2/1 34/2/1
f 36/2/1 34/2/1 35/2/1
f 39/2/1 38/2/1 37/2/1
f 40/2/1 38/2/1 39/2/1
f 43/2/1 41/2/1 40/2/1
f 44/2/1 41/2/1 43/2/1
f 44/2/1 43/2/1 42/2/1
f 45/2/1 41/2/1 44/2/1
f 47/2/1 44/2/1 42/2/1
f 48/2/1 44/2/1 47/2/1
f 50/2/1 47/2/1 46/2/1
f 50/2/1 49/2/1 48/2/1
f 50/2/1 48/2/1 47/2/1
f 51/2/1 49/2/1 50/2/1
f 54/2/1 50/2/1 46/2/1
f 55/2/1 50/2/1 54/2/1
f 56/2/1 53/2/1 52/2/1
f 56/1/1 54/1/1 53/1/1
f 57/1/1 54/1/1 56/1/1
f 58/2/1 49/2/1 51/2/1
f 59/2/1 57/2/1 56/2/1
f 59/2/1 58/2/1 57/2/1
f 59/2/1 56/2/1 52/2/1
f 60/2/1 49/2/1 58/2/1
f 60/2/1 58/2/1 59/2/1
f 61/3/2 62/3/2 63/3/2
f 63/3/2 62/3/2 64/3/2
f 65/3/2 66/3/2 67/3/2
f 67/3/2 66/3/2 68/3/2
f 69/2/2 70/2/2 71/2/2
f 71/2/2 70/2/2 72/2/2
f 69/2/2 71/2/2 73/2/2
f 69/2/2 73/2/2 75/2/2
f 73/2/2 74/2/2 75/2/2
f 75/2/2 74/2/2 76/2/2
f 76/2/2 74/2/2 78/2/2
f 77/2/2 78/2/2 79/2/2
f 78/2/2 74/2/2 80/2/2
f 79/2/2 78/2/2 80/2/2
f 80/2/2 74/2/2 82/2/2
f 82/2/2 74/2/2 83/2/2
f 81/2/2 82/2/2 83/2/2
f 83/2/2 74/2/2 84/2/2
f 81/2/2 83/2/2 85/2/2
f 81/2/2 85/2/2 87/2/2
f 85/2/2 86/2/2 87/2/2
f 87/2/2 86/2/2 88/2/2
f 88/2/2 86/2/2 90/2/2
f 89/2/2 90/2/2 91/2/2
f 90/2/2 86/2/2 92/2/2
f 91/2/2 90/2/2 92/2/2
f 91/3/2 92/3/2 93/3/2
f 93/3/2 92/3/2 94/3/2
f 94/3/2 92/3/2 95/3/2
f 93/2/2 94/2/2 96/2/2
f 96/2/2 94/2/2 97/2/2
f 97/2/2 98/2/2 100/2/2
f 100/2/2 98/2/2 101/2/2
f 99/2/2 100/2/2 101/2/2
f 101/2/2 98/2/2 102/2/2
f 99/2/2 101/2/2 104/2/2
f 104/2/2 101/2/2 105/2/2
f 103/2/2 104/2/2 107/2/2
f 105/2/2 106/2/2 107/2/2
f 104/2/2 105/2/2 107/2/2
f 107/2/2 106/2/2 108/2/2
f 103/2/2 107/2/2 111/2/2
f 111/2/2 107/2/2 112/2/2
f 109/2/2 110/2/2 113/2/2
f 110/1/2 111/1/2 113/1/2
f 113/1/2 111/1/2 114/1/2
f 108/2/2 106/2/2 115/2/2
f 113/2/2 114/2/2 116/2/2
f 114/2/2 115/2/2 116/2/2
f 109/2/2 113/2/2 116/2/2
f 115/2/2 106/2/2 117/2/2
f 116/2/2 115/2/2 117/2/2
f 120/2/3 119/2/3 118/2/3
f 121/2/3 119/2/3 120/2/3
f 124/3/3 123/3/3 122/3/3
f 125/3/3 123/3/3 124/3/3
f 126/3/3 124/3/3 122/3/3
f 127/3/3 124/3/3 126/3/3
f 130/2/3 129/2/3 128/2/3
f 131/2/3 129/2/3 130/2/3
f 141/3/3 133/3/3 132/3/3
f 142/3/3 133/3/3 141/3/3
f 146/2/3 141/2/3 140/2/3
f 146/2/3 142/2/3 141/2/3
f 146/2/3 143/2/3 142/2/3
f 147/2/3 143/2/3 146/2/3
f 148/2/3 135/2/3 134/2/3
f 149/2/3 135/2/3 148/2/3
f 150/2/3 137/2/3 136/2/3
f 151/2/3 137/2/3 150/2/3
f 152/2/3 139/2/3 138/2/3
f 153/2/3 139/2/3 152/2/3
f 154/2/3 146/2/3 140/2/3
f 155/3/3 147/3/3 146/3/3
f 155/2/3 146/2/3 154/2/3
f 156/2/3 143/2/3 147/2/3
f 156/3/3 147/3/3 155/3/3
f 157/2/3 143/2/3 156/2/3
f 158/2/3 145/2/3 144/2/3
f 159/2/3 145/2/3 158/2/3
f 170/2/3 161/2/3 160/2/3
f 171/2/3 161/2/3 170/2/3
f 172/2/3 163/2/3 162/2/3
f 173/2/3 163/2/3 172/2/3
f 174/2/3 165/2/3 164/2/3
f 175/2/3 165/2/3 174/2/3
f 176/2/3 167/2/3 166/2/3
f 177/2/3 167/2/3 176/2/3
f 178/2/3 169/2/3 168/2/3
f 179/2/3 169/2/3 178/2/3
f 180/1/4 181/1/4 182/1/4
f 182/1/4 181/1/4 183/1/4
f 184/3/4 185/3/4 186/3/4
f 186/3/4 185/3/4 187/3/4
f 188/2/4 189/2/4 190/2/4
f 190/2/4 189/2/4 191/2/4
f 192/3/4 193/3/4 194/3/4
f 194/3/4 193/3/4 195/3/4
f 196/2/4 197/2/4 204/2/4
f 204/2/4 197/2/4 205/2/4
f 198/2/4 199/2/4 206/2/4
f 206/2/4 199/2/4 207/2/4
f 200/2/4 201/2/4 208/2/4
f 208/2/4 201/2/4 209/2/4
f 202/2/4 203/2/4 210/2/4
f 210/2/4 203/2/4 211/2/4
f 212/3/4 213/3/4 215/3/4
f 214/3/4 215/3/4 221/3/4
f 216/2/4 217/2/4 226/2/4
f 226/2/4 217/2/4 227/2/4
f 218/2/4 219/2/4 228/2/4
f 228/2/4 219/2/4 229/2/4
f 220/2/4 221/2/4 230/2/4
f 221/3/4 215/3/4 231/3/4
f 230/2/4 221/2/4 231/2/4
f 215/3/4 213/3/4 232/3/4
f 231/3/4 215/3/4 232/3/4
f 222/2/4 223/2/4 233/2/4
f 233/2/4 223/2/4 234/2/4
f 224/2/4 225/2/4 235/2/4
f 235/2/4 225/2/4 236/2/4
f 239/2/5 238/2/5 237/2/5
f 240/2/5 238/2/5 239/2/5
f 243/2/5 242/2/5 241/2/5
f 244/2/5 242/2/5 243/2/5
f 247/2/5 246/2/5 245/2/5
f 248/2/5 246/2/5 247/2/5
f 251/2/5 250/2/5 249/2/5
f 252/2/5 250/2/5 251/2/5
f 255/2/5 254/2/5 253/2/5
f 256/2/5 254/2/5 255/2/5
f 259/2/5 258/2/5 257/2/5
f 260/2/5 258/2/5 259/2/5
f 263/3/5 262/3/5 261/3/5
f 265/3/5 263/3/5 261/3/5
f 265/3/5 264/3/5 263/3/5
f 266/3/5 264/3/5 265/3/5
f 267/3/5 264/3/5 266/3/5
f 268/3/5 264/3/5 267/3/5
f 271/3/5 270/3/5 269/3/5
f 272/3/5 270/3/5 271/3/5
f 275/2/5 274/2/5 273/2/5
f 276/2/5 274/2/5 275/2/5
f 279/2/5 278/2/5 277/2/5
f 280/2/5 278/2/5 279/2/5
f 283/2/5 282/2/5 281/2/5
f 284/2/5 282/2/5 283/2/5
f 287/2/5 286/2/5 285/2/5
f 288/2/5 286/2/5 287/2/5
f 291/2/5 290/2/5 289/2/5
f 292/2/5 290/2/5 291/2/5
f 293/1/5 292/1/5 291/1/5
f 294/1/5 292/1/5 293/1/5
f 297/2/5 296/2/5 295/2/5
f 298/2/5 296/2/5 297/2/5
f 299/2/6 300/2/6 301/2/6
f 301/2/6 300/2/6 302/2/6
f 303/2/6 304/2/6 305/2/6
f 305/2/6 304/2/6 306/2/6
f 307/2/6 308/2/6 309/2/6
f 309/2/6 308/2/6 310/2/6
f 311/2/6 312/2/6 313/2/6
f 313/2/6 312/2/6 314/2/6
f 315/2/6 316/2/6 317/2/6
f 317/2/6 316/2/6 318/2/6
f 319/3/6 320/3/6 322/3/6
f 322/3/6 320/3/6 323/3/6
f 321/3/6 322/3/6 325/3/6
f 323/3/6 324/3/6 325/3/6
f 322/3/6 323/3/6 325/3/6
f 321/3/6 325/3/6 327/3/6
f 325/3/6 326/3/6 327/3/6
f 327/3/6 326/3/6 328/3/6
f 329/3/6 330/3/6 331/3/6
f 331/3/6 330/3/6 332/3/6
f 333/2/6 334/2/6 335/2/6
f 335/2/6 334/2/6 336/2/6
f 337/2/6 338/2/6 339/2/6
f 339/2/6 338/2/6 340/2/6
f 341/2/6 342/2/6 343/2/6
f 343/2/6 342/2/6 344/2/6
f 345/2/6 346/2/6 347/2/6
f 347/2/6 346/2/6 348/2/6
f 349/2/6 350/2/6 351/2/6
f 351/2/6 350/2/6 352/2/6
