# MagicaVoxel @ Ephtracy

# group
o 

# material
mtllib MC_arm.mtl
usemtl palette

# normals
vn 0 0 -1
vn 0 0 1
vn -1 0 0
vn 1 0 0
vn 0 -1 0
vn 0 1 0

# texcoords
vt 0.197266 0.5
vt 0.314453 0.5
vt 0.919922 0.5

# verts
v 0.1 -0.8 -0.2
v 0.3 -0.8 -0.2
v 0.1 -0.6 -0.2
v 0.3 -0.6 -0.2
v 0.1 -0.5 -0.2
v 0.3 -0.5 -0.2
v 0 -0.2 -0.2
v 0.1 -0.2 -0.2
v 0 0.1 -0.2
v 0.3 0.1 -0.2
v 0 0.1 -0.1
v 0.2 0.1 -0.1
v 0 0.2 -0.1
v 0.2 0.2 -0.1
v 0 0.1 0
v 0.2 0.1 0
v 0 0.2 0
v 0.2 0.2 0
v 0.1 -0.8 0.1
v 0.3 -0.8 0.1
v 0.1 -0.6 0.1
v 0.3 -0.6 0.1
v 0.1 -0.5 0.1
v 0.3 -0.5 0.1
v 0 -0.2 0.1
v 0.1 -0.2 0.1
v 0 0.1 0.1
v 0.3 0.1 0.1
v 0 -0.2 -0.2
v 0 0.1 -0.2
v 0 0.1 -0.1
v 0 0.2 -0.1
v 0 0.1 0
v 0 0.2 0
v 0 -0.2 0.1
v 0 0.1 0.1
v 0.1 -0.8 -0.2
v 0.1 -0.6 -0.2
v 0.1 -0.5 -0.2
v 0.1 -0.2 -0.2
v 0.1 -0.8 0.1
v 0.1 -0.6 0.1
v 0.1 -0.5 0.1
v 0.1 -0.2 0.1
v 0.2 0.1 -0.1
v 0.2 0.2 -0.1
v 0.2 0.1 0
v 0.2 0.2 0
v 0.3 -0.8 -0.2
v 0.3 -0.6 -0.2
v 0.3 -0.5 -0.2
v 0.3 0.1 -0.2
v 0.3 -0.8 0.1
v 0.3 -0.6 0.1
v 0.3 -0.5 0.1
v 0.3 0.1 0.1
v 0.1 -0.8 -0.2
v 0.1 -0.8 0.1
v 0.3 -0.8 -0.2
v 0.3 -0.8 0.1
v 0 -0.2 -0.2
v 0 -0.2 0.1
v 0.1 -0.2 -0.2
v 0.1 -0.2 0.1
v 0 0.1 -0.2
v 0 0.1 -0.1
v 0 0.1 0
v 0 0.1 0.1
v 0.2 0.1 -0.1
v 0.2 0.1 0
v 0.3 0.1 -0.2
v 0.3 0.1 0.1
v 0 0.2 -0.1
v 0 0.2 0
v 0.2 0.2 -0.1
v 0.2 0.2 0

# faces
f 3/1/1 2/1/1 1/1/1
f 4/1/1 2/1/1 3/1/1
f 5/2/1 4/2/1 3/2/1
f 6/2/1 4/2/1 5/2/1
f 8/3/1 6/3/1 5/3/1
f 9/3/1 8/3/1 7/3/1
f 10/3/1 6/3/1 8/3/1
f 10/3/1 8/3/1 9/3/1
f 13/3/1 12/3/1 11/3/1
f 14/3/1 12/3/1 13/3/1
f 15/3/2 16/3/2 17/3/2
f 17/3/2 16/3/2 18/3/2
f 19/1/2 20/1/2 21/1/2
f 21/1/2 20/1/2 22/1/2
f 21/2/2 22/2/2 23/2/2
f 23/2/2 22/2/2 24/2/2
f 23/3/2 24/3/2 26/3/2
f 25/3/2 26/3/2 27/3/2
f 26/3/2 24/3/2 28/3/2
f 27/3/2 26/3/2 28/3/2
f 31/3/3 30/3/3 29/3/3
f 33/3/3 31/3/3 29/3/3
f 33/3/3 32/3/3 31/3/3
f 34/3/3 32/3/3 33/3/3
f 35/3/3 33/3/3 29/3/3
f 36/3/3 33/3/3 35/3/3
f 41/1/3 38/1/3 37/1/3
f 42/2/3 39/2/3 38/2/3
f 42/1/3 38/1/3 41/1/3
f 43/3/3 40/3/3 39/3/3
f 43/2/3 39/2/3 42/2/3
f 44/3/3 40/3/3 43/3/3
f 45/3/4 46/3/4 47/3/4
f 47/3/4 46/3/4 48/3/4
f 49/1/4 50/1/4 53/1/4
f 50/2/4 51/2/4 54/2/4
f 53/1/4 50/1/4 54/1/4
f 51/3/4 52/3/4 55/3/4
f 54/2/4 51/2/4 55/2/4
f 55/3/4 52/3/4 56/3/4
f 59/1/5 58/1/5 57/1/5
f 60/1/5 58/1/5 59/1/5
f 63/3/5 62/3/5 61/3/5
f 64/3/5 62/3/5 63/3/5
f 65/3/6 66/3/6 69/3/6
f 67/3/6 68/3/6 70/3/6
f 65/3/6 69/3/6 71/3/6
f 69/3/6 70/3/6 71/3/6
f 70/3/6 68/3/6 72/3/6
f 71/3/6 70/3/6 72/3/6
f 73/3/6 74/3/6 75/3/6
f 75/3/6 74/3/6 76/3/6
