# MagicaVoxel @ Ephtracy

# group
o 

# material
mtllib MC_leg.mtl
usemtl palette

# normals
vn 0 0 -1
vn 0 0 1
vn -1 0 0
vn 1 0 0
vn 0 -1 0
vn 0 1 0

# texcoords
vt 0.197266 0.5
vt 0.314453 0.5
vt 0.919922 0.5

# verts
v 0 -0.8 -0.2
v 0.2 -0.8 -0.2
v 0 -0.2 -0.2
v 0.1 -0.2 -0.2
v 0.2 -0.2 -0.2
v 0.1 -0.1 -0.2
v 0.2 -0.1 -0.2
v 0 0 -0.2
v 0.2 0 -0.2
v 0.2 -0.1 -0.1
v 0.3 -0.1 -0.1
v 0.2 0 -0.1
v 0.3 0 -0.1
v 0 -0.6 0.1
v 0.2 -0.6 0.1
v 0 -0.2 0.1
v 0.2 -0.2 0.1
v 0 -0.1 0.1
v 0.2 -0.1 0.1
v 0.3 -0.1 0.1
v 0.2 0 0.1
v 0.3 0 0.1
v 0 -0.1 0.2
v 0.2 -0.1 0.2
v 0 0 0.2
v 0.2 0 0.2
v 0 -0.8 0.3
v 0.2 -0.8 0.3
v 0 -0.6 0.3
v 0.2 -0.6 0.3
v 0 -0.8 -0.2
v 0 -0.2 -0.2
v 0 0 -0.2
v 0 -0.2 0
v 0 -0.1 0
v 0 -0.6 0.1
v 0 -0.2 0.1
v 0 -0.1 0.1
v 0 -0.1 0.2
v 0 0 0.2
v 0 -0.8 0.3
v 0 -0.6 0.3
v 0.2 -0.8 -0.2
v 0.2 -0.2 -0.2
v 0.2 -0.1 -0.2
v 0.2 0 -0.2
v 0.2 -0.1 -0.1
v 0.2 0 -0.1
v 0.2 -0.6 0.1
v 0.2 -0.2 0.1
v 0.2 -0.1 0.1
v 0.2 0 0.1
v 0.2 -0.1 0.2
v 0.2 0 0.2
v 0.2 -0.8 0.3
v 0.2 -0.6 0.3
v 0.3 -0.1 -0.1
v 0.3 0 -0.1
v 0.3 -0.1 0.1
v 0.3 0 0.1
v 0 -0.8 -0.2
v 0 -0.8 0.3
v 0.2 -0.8 -0.2
v 0.2 -0.8 0.3
v 0 -0.1 0.1
v 0 -0.1 0.2
v 0.2 -0.1 -0.1
v 0.2 -0.1 0.1
v 0.2 -0.1 0.2
v 0.3 -0.1 -0.1
v 0.3 -0.1 0.1
v 0 -0.6 0.1
v 0 -0.6 0.3
v 0.2 -0.6 0.1
v 0.2 -0.6 0.3
v 0 0 -0.2
v 0 0 0.2
v 0.2 0 -0.2
v 0.2 0 -0.1
v 0.2 0 0.1
v 0.2 0 0.2
v 0.3 0 -0.1
v 0.3 0 0.1

# faces
f 3/1/1 2/1/1 1/1/1
f 4/1/1 2/1/1 3/1/1
f 5/1/1 2/1/1 4/1/1
f 6/3/1 4/3/1 3/3/1
f 6/2/1 5/2/1 4/2/1
f 7/2/1 5/2/1 6/2/1
f 8/3/1 6/3/1 3/3/1
f 8/3/1 7/3/1 6/3/1
f 9/3/1 7/3/1 8/3/1
f 12/3/1 11/3/1 10/3/1
f 13/3/1 11/3/1 12/3/1
f 14/1/2 15/1/2 16/1/2
f 16/1/2 15/1/2 17/1/2
f 16/2/2 17/2/2 18/2/2
f 18/2/2 17/2/2 19/2/2
f 19/3/2 20/3/2 21/3/2
f 21/3/2 20/3/2 22/3/2
f 23/3/2 24/3/2 25/3/2
f 25/3/2 24/3/2 26/3/2
f 27/1/2 28/1/2 29/1/2
f 29/1/2 28/1/2 30/1/2
f 34/1/3 32/1/3 31/1/3
f 34/3/3 33/3/3 32/3/3
f 35/3/3 33/3/3 34/3/3
f 36/1/3 34/1/3 31/1/3
f 37/2/3 35/2/3 34/2/3
f 37/1/3 34/1/3 36/1/3
f 38/3/3 33/3/3 35/3/3
f 38/2/3 35/2/3 37/2/3
f 39/3/3 33/3/3 38/3/3
f 40/3/3 33/3/3 39/3/3
f 41/1/3 36/1/3 31/1/3
f 42/1/3 36/1/3 41/1/3
f 44/2/4 45/2/4 47/2/4
f 45/3/4 46/3/4 47/3/4
f 47/3/4 46/3/4 48/3/4
f 43/1/4 44/1/4 49/1/4
f 44/2/4 47/2/4 50/2/4
f 49/1/4 44/1/4 50/1/4
f 50/2/4 47/2/4 51/2/4
f 51/3/4 52/3/4 53/3/4
f 53/3/4 52/3/4 54/3/4
f 43/1/4 49/1/4 55/1/4
f 55/1/4 49/1/4 56/1/4
f 57/3/4 58/3/4 59/3/4
f 59/3/4 58/3/4 60/3/4
f 63/1/5 62/1/5 61/1/5
f 64/1/5 62/1/5 63/1/5
f 68/3/5 66/3/5 65/3/5
f 69/3/5 66/3/5 68/3/5
f 70/3/5 68/3/5 67/3/5
f 71/3/5 68/3/5 70/3/5
f 72/1/6 73/1/6 74/1/6
f 74/1/6 73/1/6 75/1/6
f 76/3/6 77/3/6 78/3/6
f 78/3/6 77/3/6 79/3/6
f 79/3/6 77/3/6 80/3/6
f 80/3/6 77/3/6 81/3/6
f 79/3/6 80/3/6 82/3/6
f 82/3/6 80/3/6 83/3/6
