# MagicaVoxel @ Ephtracy

# group
o 

# material
mtllib Backet.mtl
usemtl palette

# normals
vn -1 0 0
vn 1 0 0
vn 0 0 1
vn 0 0 -1
vn 0 -1 0
vn 0 1 0

# texcoords
vt 0.322266 0.5
vt 0.408203 0.5

# verts
v 0 0.8 -0.2
v 0 0.8 -0.5
v 0 1 -0.2
v 0 1 -0.3
v 0 1 -0.4
v 0 1 -0.5
v 0 1.1 -0.3
v 0 1.1 -0.4
v 0.1 0.5 -0.2
v 0.1 0.5 -0.5
v 0.1 0.8 -0.1
v 0.1 0.8 -0.2
v 0.1 0.8 -0.5
v 0.1 0.8 -0.6
v 0.1 1 -0.1
v 0.1 1 -0.2
v 0.1 1 -0.5
v 0.1 1 -0.6
v 0.1 1.1 -0.3
v 0.1 1.1 -0.4
v 0.1 1.2 -0.3
v 0.1 1.2 -0.4
v 0.2 0.4 -0.2
v 0.2 0.4 -0.5
v 0.2 0.5 -0.1
v 0.2 0.5 -0.2
v 0.2 0.5 -0.5
v 0.2 0.5 -0.6
v 0.2 0.8 0
v 0.2 0.8 -0.1
v 0.2 0.8 -0.2
v 0.2 0.8 -0.5
v 0.2 0.8 -0.6
v 0.2 0.8 -0.7
v 0.2 1 0
v 0.2 1 -0.1
v 0.2 1 -0.6
v 0.2 1 -0.7
v 0.2 1.2 -0.3
v 0.2 1.2 -0.4
v 0.2 1.3 -0.3
v 0.2 1.3 -0.4
v 0.5 0.5 -0.2
v 0.5 0.5 -0.5
v 0.5 0.8 -0.1
v 0.5 0.8 -0.2
v 0.5 0.8 -0.5
v 0.5 0.8 -0.6
v 0.5 1 -0.1
v 0.5 1 -0.2
v 0.5 1 -0.5
v 0.5 1 -0.6
v 0.5 1.1 -0.3
v 0.5 1.1 -0.4
v 0.5 1.2 -0.3
v 0.5 1.2 -0.4
v 0.6 0.8 -0.2
v 0.6 0.8 -0.5
v 0.6 1 -0.2
v 0.6 1 -0.3
v 0.6 1 -0.4
v 0.6 1 -0.5
v 0.6 1.1 -0.3
v 0.6 1.1 -0.4
v 0.1 0.8 -0.2
v 0.1 0.8 -0.5
v 0.1 1 -0.2
v 0.1 1 -0.3
v 0.1 1 -0.4
v 0.1 1 -0.5
v 0.1 1.1 -0.3
v 0.1 1.1 -0.4
v 0.2 0.5 -0.2
v 0.2 0.5 -0.5
v 0.2 0.8 -0.1
v 0.2 0.8 -0.2
v 0.2 0.8 -0.5
v 0.2 0.8 -0.6
v 0.2 1 -0.1
v 0.2 1 -0.2
v 0.2 1 -0.5
v 0.2 1 -0.6
v 0.2 1.1 -0.3
v 0.2 1.1 -0.4
v 0.2 1.2 -0.3
v 0.2 1.2 -0.4
v 0.5 0.4 -0.2
v 0.5 0.4 -0.5
v 0.5 0.5 -0.1
v 0.5 0.5 -0.2
v 0.5 0.5 -0.5
v 0.5 0.5 -0.6
v 0.5 0.8 0
v 0.5 0.8 -0.1
v 0.5 0.8 -0.2
v 0.5 0.8 -0.5
v 0.5 0.8 -0.6
v 0.5 0.8 -0.7
v 0.5 1 0
v 0.5 1 -0.1
v 0.5 1 -0.6
v 0.5 1 -0.7
v 0.5 1.2 -0.3
v 0.5 1.2 -0.4
v 0.5 1.3 -0.3
v 0.5 1.3 -0.4
v 0.6 0.5 -0.2
v 0.6 0.5 -0.5
v 0.6 0.8 -0.1
v 0.6 0.8 -0.2
v 0.6 0.8 -0.5
v 0.6 0.8 -0.6
v 0.6 1 -0.1
v 0.6 1 -0.2
v 0.6 1 -0.5
v 0.6 1 -0.6
v 0.6 1.1 -0.3
v 0.6 1.1 -0.4
v 0.6 1.2 -0.3
v 0.6 1.2 -0.4
v 0.7 0.8 -0.2
v 0.7 0.8 -0.5
v 0.7 1 -0.2
v 0.7 1 -0.3
v 0.7 1 -0.4
v 0.7 1 -0.5
v 0.7 1.1 -0.3
v 0.7 1.1 -0.4
v 0.2 0.8 0
v 0.2 1 0
v 0.5 0.8 0
v 0.5 1 0
v 0.1 0.8 -0.1
v 0.1 1 -0.1
v 0.2 0.5 -0.1
v 0.2 0.8 -0.1
v 0.2 1 -0.1
v 0.5 0.5 -0.1
v 0.5 0.8 -0.1
v 0.5 1 -0.1
v 0.6 0.8 -0.1
v 0.6 1 -0.1
v 0 0.8 -0.2
v 0 1 -0.2
v 0.1 0.5 -0.2
v 0.1 0.8 -0.2
v 0.1 1 -0.2
v 0.2 0.4 -0.2
v 0.2 0.5 -0.2
v 0.2 0.8 -0.2
v 0.5 0.4 -0.2
v 0.5 0.5 -0.2
v 0.5 0.8 -0.2
v 0.6 0.5 -0.2
v 0.6 0.8 -0.2
v 0.6 1 -0.2
v 0.7 0.8 -0.2
v 0.7 1 -0.2
v 0 1 -0.3
v 0 1.1 -0.3
v 0.1 1 -0.3
v 0.1 1.1 -0.3
v 0.1 1.2 -0.3
v 0.2 1.1 -0.3
v 0.2 1.2 -0.3
v 0.2 1.3 -0.3
v 0.5 1.1 -0.3
v 0.5 1.2 -0.3
v 0.5 1.3 -0.3
v 0.6 1 -0.3
v 0.6 1.1 -0.3
v 0.6 1.2 -0.3
v 0.7 1 -0.3
v 0.7 1.1 -0.3
v 0.1 0.8 -0.5
v 0.1 1 -0.5
v 0.2 0.5 -0.5
v 0.2 0.8 -0.5
v 0.2 1 -0.5
v 0.5 0.5 -0.5
v 0.5 0.8 -0.5
v 0.5 1 -0.5
v 0.6 0.8 -0.5
v 0.6 1 -0.5
v 0.2 0.8 -0.6
v 0.2 1 -0.6
v 0.5 0.8 -0.6
v 0.5 1 -0.6
v 0.2 0.8 -0.1
v 0.2 1 -0.1
v 0.5 0.8 -0.1
v 0.5 1 -0.1
v 0.1 0.8 -0.2
v 0.1 1 -0.2
v 0.2 0.5 -0.2
v 0.2 0.8 -0.2
v 0.2 1 -0.2
v 0.5 0.5 -0.2
v 0.5 0.8 -0.2
v 0.5 1 -0.2
v 0.6 0.8 -0.2
v 0.6 1 -0.2
v 0 1 -0.4
v 0 1.1 -0.4
v 0.1 1 -0.4
v 0.1 1.1 -0.4
v 0.1 1.2 -0.4
v 0.2 1.1 -0.4
v 0.2 1.2 -0.4
v 0.2 1.3 -0.4
v 0.5 1.1 -0.4
v 0.5 1.2 -0.4
v 0.5 1.3 -0.4
v 0.6 1 -0.4
v 0.6 1.1 -0.4
v 0.6 1.2 -0.4
v 0.7 1 -0.4
v 0.7 1.1 -0.4
v 0 0.8 -0.5
v 0 1 -0.5
v 0.1 0.5 -0.5
v 0.1 0.8 -0.5
v 0.1 1 -0.5
v 0.2 0.4 -0.5
v 0.2 0.5 -0.5
v 0.2 0.8 -0.5
v 0.5 0.4 -0.5
v 0.5 0.5 -0.5
v 0.5 0.8 -0.5
v 0.6 0.5 -0.5
v 0.6 0.8 -0.5
v 0.6 1 -0.5
v 0.7 0.8 -0.5
v 0.7 1 -0.5
v 0.1 0.8 -0.6
v 0.1 1 -0.6
v 0.2 0.5 -0.6
v 0.2 0.8 -0.6
v 0.2 1 -0.6
v 0.5 0.5 -0.6
v 0.5 0.8 -0.6
v 0.5 1 -0.6
v 0.6 0.8 -0.6
v 0.6 1 -0.6
v 0.2 0.8 -0.7
v 0.2 1 -0.7
v 0.5 0.8 -0.7
v 0.5 1 -0.7
v 0.2 0.4 -0.2
v 0.5 0.4 -0.2
v 0.2 0.4 -0.5
v 0.5 0.4 -0.5
v 0.2 0.5 -0.1
v 0.5 0.5 -0.1
v 0.1 0.5 -0.2
v 0.2 0.5 -0.2
v 0.5 0.5 -0.2
v 0.6 0.5 -0.2
v 0.1 0.5 -0.5
v 0.2 0.5 -0.5
v 0.5 0.5 -0.5
v 0.6 0.5 -0.5
v 0.2 0.5 -0.6
v 0.5 0.5 -0.6
v 0.2 0.8 0
v 0.5 0.8 0
v 0.1 0.8 -0.1
v 0.2 0.8 -0.1
v 0.5 0.8 -0.1
v 0.6 0.8 -0.1
v 0 0.8 -0.2
v 0.1 0.8 -0.2
v 0.2 0.8 -0.2
v 0.5 0.8 -0.2
v 0.6 0.8 -0.2
v 0.7 0.8 -0.2
v 0 0.8 -0.5
v 0.1 0.8 -0.5
v 0.2 0.8 -0.5
v 0.5 0.8 -0.5
v 0.6 0.8 -0.5
v 0.7 0.8 -0.5
v 0.1 0.8 -0.6
v 0.2 0.8 -0.6
v 0.5 0.8 -0.6
v 0.6 0.8 -0.6
v 0.2 0.8 -0.7
v 0.5 0.8 -0.7
v 0.1 1.1 -0.3
v 0.2 1.1 -0.3
v 0.5 1.1 -0.3
v 0.6 1.1 -0.3
v 0.1 1.1 -0.4
v 0.2 1.1 -0.4
v 0.5 1.1 -0.4
v 0.6 1.1 -0.4
v 0.2 1.2 -0.3
v 0.5 1.2 -0.3
v 0.2 1.2 -0.4
v 0.5 1.2 -0.4
v 0.2 0.5 -0.2
v 0.5 0.5 -0.2
v 0.2 0.5 -0.5
v 0.5 0.5 -0.5
v 0.2 0.8 -0.1
v 0.5 0.8 -0.1
v 0.1 0.8 -0.2
v 0.2 0.8 -0.2
v 0.5 0.8 -0.2
v 0.6 0.8 -0.2
v 0.1 0.8 -0.5
v 0.2 0.8 -0.5
v 0.5 0.8 -0.5
v 0.6 0.8 -0.5
v 0.2 0.8 -0.6
v 0.5 0.8 -0.6
v 0.2 1 0
v 0.5 1 0
v 0.1 1 -0.1
v 0.2 1 -0.1
v 0.5 1 -0.1
v 0.6 1 -0.1
v 0 1 -0.2
v 0.1 1 -0.2
v 0.2 1 -0.2
v 0.5 1 -0.2
v 0.6 1 -0.2
v 0.7 1 -0.2
v 0 1 -0.3
v 0.1 1 -0.3
v 0.6 1 -0.3
v 0.7 1 -0.3
v 0 1 -0.4
v 0.1 1 -0.4
v 0.6 1 -0.4
v 0.7 1 -0.4
v 0 1 -0.5
v 0.1 1 -0.5
v 0.2 1 -0.5
v 0.5 1 -0.5
v 0.6 1 -0.5
v 0.7 1 -0.5
v 0.1 1 -0.6
v 0.2 1 -0.6
v 0.5 1 -0.6
v 0.6 1 -0.6
v 0.2 1 -0.7
v 0.5 1 -0.7
v 0 1.1 -0.3
v 0.1 1.1 -0.3
v 0.6 1.1 -0.3
v 0.7 1.1 -0.3
v 0 1.1 -0.4
v 0.1 1.1 -0.4
v 0.6 1.1 -0.4
v 0.7 1.1 -0.4
v 0.1 1.2 -0.3
v 0.2 1.2 -0.3
v 0.5 1.2 -0.3
v 0.6 1.2 -0.3
v 0.1 1.2 -0.4
v 0.2 1.2 -0.4
v 0.5 1.2 -0.4
v 0.6 1.2 -0.4
v 0.2 1.3 -0.3
v 0.5 1.3 -0.3
v 0.2 1.3 -0.4
v 0.5 1.3 -0.4

# faces
f 3/1/1 2/1/1 1/1/1
f 4/1/1 2/1/1 3/1/1
f 5/1/1 2/1/1 4/1/1
f 6/1/1 2/1/1 5/1/1
f 7/2/1 5/2/1 4/2/1
f 8/2/1 5/2/1 7/2/1
f 12/1/1 10/1/1 9/1/1
f 13/1/1 10/1/1 12/1/1
f 15/1/1 12/1/1 11/1/1
f 16/1/1 12/1/1 15/1/1
f 17/1/1 14/1/1 13/1/1
f 18/1/1 14/1/1 17/1/1
f 21/2/1 20/2/1 19/2/1
f 22/2/1 20/2/1 21/2/1
f 26/1/1 24/1/1 23/1/1
f 27/1/1 24/1/1 26/1/1
f 30/1/1 26/1/1 25/1/1
f 31/1/1 26/1/1 30/1/1
f 32/1/1 28/1/1 27/1/1
f 33/1/1 28/1/1 32/1/1
f 35/1/1 30/1/1 29/1/1
f 36/1/1 30/1/1 35/1/1
f 37/1/1 34/1/1 33/1/1
f 38/1/1 34/1/1 37/1/1
f 41/2/1 40/2/1 39/2/1
f 42/2/1 40/2/1 41/2/1
f 46/1/1 44/1/1 43/1/1
f 47/1/1 44/1/1 46/1/1
f 49/1/1 46/1/1 45/1/1
f 50/1/1 46/1/1 49/1/1
f 51/1/1 48/1/1 47/1/1
f 52/1/1 48/1/1 51/1/1
f 55/2/1 54/2/1 53/2/1
f 56/2/1 54/2/1 55/2/1
f 59/1/1 58/1/1 57/1/1
f 60/1/1 58/1/1 59/1/1
f 61/1/1 58/1/1 60/1/1
f 62/1/1 58/1/1 61/1/1
f 63/2/1 61/2/1 60/2/1
f 64/2/1 61/2/1 63/2/1
f 65/1/2 66/1/2 67/1/2
f 67/1/2 66/1/2 68/1/2
f 68/1/2 66/1/2 69/1/2
f 69/1/2 66/1/2 70/1/2
f 68/2/2 69/2/2 71/2/2
f 71/2/2 69/2/2 72/2/2
f 73/1/2 74/1/2 76/1/2
f 76/1/2 74/1/2 77/1/2
f 75/1/2 76/1/2 79/1/2
f 79/1/2 76/1/2 80/1/2
f 77/1/2 78/1/2 81/1/2
f 81/1/2 78/1/2 82/1/2
f 83/2/2 84/2/2 85/2/2
f 85/2/2 84/2/2 86/2/2
f 87/1/2 88/1/2 90/1/2
f 90/1/2 88/1/2 91/1/2
f 89/1/2 90/1/2 94/1/2
f 94/1/2 90/1/2 95/1/2
f 91/1/2 92/1/2 96/1/2
f 96/1/2 92/1/2 97/1/2
f 93/1/2 94/1/2 99/1/2
f 99/1/2 94/1/2 100/1/2
f 97/1/2 98/1/2 101/1/2
f 101/1/2 98/1/2 102/1/2
f 103/2/2 104/2/2 105/2/2
f 105/2/2 104/2/2 106/2/2
f 107/1/2 108/1/2 110/1/2
f 110/1/2 108/1/2 111/1/2
f 109/1/2 110/1/2 113/1/2
f 113/1/2 110/1/2 114/1/2
f 111/1/2 112/1/2 115/1/2
f 115/1/2 112/1/2 116/1/2
f 117/2/2 118/2/2 119/2/2
f 119/2/2 118/2/2 120/2/2
f 121/1/2 122/1/2 123/1/2
f 123/1/2 122/1/2 124/1/2
f 124/1/2 122/1/2 125/1/2
f 125/1/2 122/1/2 126/1/2
f 124/2/2 125/2/2 127/2/2
f 127/2/2 125/2/2 128/2/2
f 131/1/3 130/1/3 129/1/3
f 132/1/3 130/1/3 131/1/3
f 136/1/3 134/1/3 133/1/3
f 137/1/3 134/1/3 136/1/3
f 138/1/3 136/1/3 135/1/3
f 139/1/3 136/1/3 138/1/3
f 141/1/3 140/1/3 139/1/3
f 142/1/3 140/1/3 141/1/3
f 146/1/3 144/1/3 143/1/3
f 147/1/3 144/1/3 146/1/3
f 149/1/3 146/1/3 145/1/3
f 150/1/3 146/1/3 149/1/3
f 151/1/3 149/1/3 148/1/3
f 152/1/3 149/1/3 151/1/3
f 154/1/3 153/1/3 152/1/3
f 155/1/3 153/1/3 154/1/3
f 157/1/3 156/1/3 155/1/3
f 158/1/3 156/1/3 157/1/3
f 161/2/3 160/2/3 159/2/3
f 162/2/3 160/2/3 161/2/3
f 164/2/3 163/2/3 162/2/3
f 165/2/3 163/2/3 164/2/3
f 168/2/3 166/2/3 165/2/3
f 169/2/3 166/2/3 168/2/3
f 171/2/3 168/2/3 167/2/3
f 172/2/3 168/2/3 171/2/3
f 173/2/3 171/2/3 170/2/3
f 174/2/3 171/2/3 173/2/3
f 178/1/3 176/1/3 175/1/3
f 179/1/3 176/1/3 178/1/3
f 180/1/3 178/1/3 177/1/3
f 181/1/3 178/1/3 180/1/3
f 183/1/3 182/1/3 181/1/3
f 184/1/3 182/1/3 183/1/3
f 187/1/3 186/1/3 185/1/3
f 188/1/3 186/1/3 187/1/3
f 189/1/4 190/1/4 191/1/4
f 191/1/4 190/1/4 192/1/4
f 193/1/4 194/1/4 196/1/4
f 196/1/4 194/1/4 197/1/4
f 195/1/4 196/1/4 198/1/4
f 198/1/4 196/1/4 199/1/4
f 199/1/4 200/1/4 201/1/4
f 201/1/4 200/1/4 202/1/4
f 203/2/4 204/2/4 205/2/4
f 205/2/4 204/2/4 206/2/4
f 206/2/4 207/2/4 208/2/4
f 208/2/4 207/2/4 209/2/4
f 209/2/4 210/2/4 212/2/4
f 212/2/4 210/2/4 213/2/4
f 211/2/4 212/2/4 215/2/4
f 215/2/4 212/2/4 216/2/4
f 214/2/4 215/2/4 217/2/4
f 217/2/4 215/2/4 218/2/4
f 219/1/4 220/1/4 222/1/4
f 222/1/4 220/1/4 223/1/4
f 221/1/4 222/1/4 225/1/4
f 225/1/4 222/1/4 226/1/4
f 224/1/4 225/1/4 227/1/4
f 227/1/4 225/1/4 228/1/4
f 228/1/4 229/1/4 230/1/4
f 230/1/4 229/1/4 231/1/4
f 231/1/4 232/1/4 233/1/4
f 233/1/4 232/1/4 234/1/4
f 235/1/4 236/1/4 238/1/4
f 238/1/4 236/1/4 239/1/4
f 237/1/4 238/1/4 240/1/4
f 240/1/4 238/1/4 241/1/4
f 241/1/4 242/1/4 243/1/4
f 243/1/4 242/1/4 244/1/4
f 245/1/4 246/1/4 247/1/4
f 247/1/4 246/1/4 248/1/4
f 251/1/5 250/1/5 249/1/5
f 252/1/5 250/1/5 251/1/5
f 256/1/5 254/1/5 253/1/5
f 257/1/5 254/1/5 256/1/5
f 259/1/5 256/1/5 255/1/5
f 260/1/5 256/1/5 259/1/5
f 261/1/5 258/1/5 257/1/5
f 262/1/5 258/1/5 261/1/5
f 263/1/5 261/1/5 260/1/5
f 264/1/5 261/1/5 263/1/5
f 268/1/5 266/1/5 265/1/5
f 269/1/5 266/1/5 268/1/5
f 272/1/5 268/1/5 267/1/5
f 273/1/5 268/1/5 272/1/5
f 274/1/5 270/1/5 269/1/5
f 275/1/5 270/1/5 274/1/5
f 277/1/5 272/1/5 271/1/5
f 278/1/5 272/1/5 277/1/5
f 281/1/5 276/1/5 275/1/5
f 282/1/5 276/1/5 281/1/5
f 283/1/5 279/1/5 278/1/5
f 284/1/5 279/1/5 283/1/5
f 285/1/5 281/1/5 280/1/5
f 286/1/5 281/1/5 285/1/5
f 287/1/5 285/1/5 284/1/5
f 288/1/5 285/1/5 287/1/5
f 293/2/5 290/2/5 289/2/5
f 294/2/5 290/2/5 293/2/5
f 295/2/5 292/2/5 291/2/5
f 296/2/5 292/2/5 295/2/5
f 299/2/5 298/2/5 297/2/5
f 300/2/5 298/2/5 299/2/5
f 301/1/6 302/1/6 303/1/6
f 303/1/6 302/1/6 304/1/6
f 305/1/6 306/1/6 308/1/6
f 308/1/6 306/1/6 309/1/6
f 307/1/6 308/1/6 311/1/6
f 311/1/6 308/1/6 312/1/6
f 309/1/6 310/1/6 313/1/6
f 313/1/6 310/1/6 314/1/6
f 312/1/6 313/1/6 315/1/6
f 315/1/6 313/1/6 316/1/6
f 317/1/6 318/1/6 320/1/6
f 320/1/6 318/1/6 321/1/6
f 319/1/6 320/1/6 324/1/6
f 324/1/6 320/1/6 325/1/6
f 321/1/6 322/1/6 326/1/6
f 326/1/6 322/1/6 327/1/6
f 323/1/6 324/1/6 329/1/6
f 329/1/6 324/1/6 330/1/6
f 327/1/6 328/1/6 331/1/6
f 331/1/6 328/1/6 332/1/6
f 333/1/6 334/1/6 337/1/6
f 337/1/6 334/1/6 338/1/6
f 335/1/6 336/1/6 341/1/6
f 341/1/6 336/1/6 342/1/6
f 338/1/6 339/1/6 343/1/6
f 343/1/6 339/1/6 344/1/6
f 340/1/6 341/1/6 345/1/6
f 345/1/6 341/1/6 346/1/6
f 344/1/6 345/1/6 347/1/6
f 347/1/6 345/1/6 348/1/6
f 349/2/6 350/2/6 353/2/6
f 353/2/6 350/2/6 354/2/6
f 351/2/6 352/2/6 355/2/6
f 355/2/6 352/2/6 356/2/6
f 357/2/6 358/2/6 361/2/6
f 361/2/6 358/2/6 362/2/6
f 359/2/6 360/2/6 363/2/6
f 363/2/6 360/2/6 364/2/6
f 365/2/6 366/2/6 367/2/6
f 367/2/6 366/2/6 368/2/6
