# MagicaVoxel @ Ephtracy

# group
o 

# material
mtllib Chest.mtl
usemtl palette

# normals
vn -1 0 0
vn 1 0 0
vn 0 0 1
vn 0 0 -1
vn 0 -1 0
vn 0 1 0

# texcoords
vt 0.322266 0.5
vt 0.408203 0.5
vt 0.490234 0.5
vt 0.525391 0.5
vt 0.552734 0.5

# verts
v -1.4 0.6 5.96046e-08
v -1.4 0.6 -0.2
v -1.4 0.7 0.1
v -1.4 0.7 5.96046e-08
v -1.4 0.7 -0.2
v -1.4 0.7 -0.3
v -1.4 0.8 0.2
v -1.4 0.8 0.1
v -1.4 0.8 5.96046e-08
v -1.4 0.8 -0.2
v -1.4 0.8 -0.3
v -1.4 0.8 -0.4
v -1.4 0.9 0.1
v -1.4 0.9 5.96046e-08
v -1.4 0.9 -0.2
v -1.4 0.9 -0.3
v -1.4 1 0.2
v -1.4 1 0.1
v -1.4 1 5.96046e-08
v -1.4 1 -0.2
v -1.4 1 -0.3
v -1.4 1 -0.4
v -1.4 1.1 0.1
v -1.4 1.1 -0.3
v -1.3 0 0.5
v -1.3 0 -0.7
v -1.3 0.6 5.96046e-08
v -1.3 0.6 -0.2
v -1.3 0.7 0.1
v -1.3 0.7 5.96046e-08
v -1.3 0.7 -0.2
v -1.3 0.7 -0.3
v -1.3 0.8 0.2
v -1.3 0.8 0.1
v -1.3 0.8 5.96046e-08
v -1.3 0.8 -0.2
v -1.3 0.8 -0.3
v -1.3 0.8 -0.4
v -1.3 0.9 0.1
v -1.3 0.9 5.96046e-08
v -1.3 0.9 -0.2
v -1.3 0.9 -0.3
v -1.3 1 0.5
v -1.3 1 0.2
v -1.3 1 0.1
v -1.3 1 -0.3
v -1.3 1 -0.4
v -1.3 1 -0.7
v -1.3 1.1 0.5
v -1.3 1.1 0.1
v -1.3 1.1 -0.3
v -1.3 1.1 -0.7
v -1.3 1.3 0.5
v -1.3 1.3 0.4
v -1.3 1.3 -0.6
v -1.3 1.3 -0.7
v -1.3 1.5 0.4
v -1.3 1.5 0.3
v -1.3 1.5 -0.5
v -1.3 1.5 -0.6
v -1.3 1.6 0.3
v -1.3 1.6 0.1
v -1.3 1.6 -0.3
v -1.3 1.6 -0.5
v -1.3 1.7 0.1
v -1.3 1.7 -0.3
v -0.2 0.7 0.6
v -0.2 0.7 0.5
v -0.2 0.9 0.6
v -0.2 0.9 0.5
v -0.1 0.6 0.6
v -0.1 0.6 0.5
v -0.1 0.7 0.6
v -0.1 0.7 0.5
v -0.1 0.9 0.6
v -0.1 0.9 0.5
v -0.1 1 0.6
v -0.1 1 0.5
v 0.1 0.7 0.6
v 0.1 0.7 0.5
v 0.1 0.8 0.5
v 0.1 0.9 0.6
v 0.1 0.9 0.5
v -0.1 0.7 0.6
v -0.1 0.7 0.5
v -0.1 0.8 0.5
v -0.1 0.9 0.6
v -0.1 0.9 0.5
v 0.1 0.6 0.6
v 0.1 0.6 0.5
v 0.1 0.7 0.6
v 0.1 0.7 0.5
v 0.1 0.9 0.6
v 0.1 0.9 0.5
v 0.1 1 0.6
v 0.1 1 0.5
v 0.2 0.7 0.6
v 0.2 0.7 0.5
v 0.2 0.9 0.6
v 0.2 0.9 0.5
v 1.3 0 0.5
v 1.3 0 -0.7
v 1.3 0.6 5.96046e-08
v 1.3 0.6 -0.2
v 1.3 0.7 0.1
v 1.3 0.7 5.96046e-08
v 1.3 0.7 -0.2
v 1.3 0.7 -0.3
v 1.3 0.8 0.2
v 1.3 0.8 0.1
v 1.3 0.8 5.96046e-08
v 1.3 0.8 -0.2
v 1.3 0.8 -0.3
v 1.3 0.8 -0.4
v 1.3 0.9 0.1
v 1.3 0.9 5.96046e-08
v 1.3 0.9 -0.2
v 1.3 0.9 -0.3
v 1.3 1 0.5
v 1.3 1 0.2
v 1.3 1 0.1
v 1.3 1 -0.3
v 1.3 1 -0.4
v 1.3 1 -0.7
v 1.3 1.1 0.5
v 1.3 1.1 0.1
v 1.3 1.1 -0.3
v 1.3 1.1 -0.7
v 1.3 1.3 0.5
v 1.3 1.3 0.4
v 1.3 1.3 -0.6
v 1.3 1.3 -0.7
v 1.3 1.5 0.4
v 1.3 1.5 0.3
v 1.3 1.5 -0.5
v 1.3 1.5 -0.6
v 1.3 1.6 0.3
v 1.3 1.6 0.1
v 1.3 1.6 -0.3
v 1.3 1.6 -0.5
v 1.3 1.7 0.1
v 1.3 1.7 -0.3
v 1.4 0.6 5.96046e-08
v 1.4 0.6 -0.2
v 1.4 0.7 0.1
v 1.4 0.7 5.96046e-08
v 1.4 0.7 -0.2
v 1.4 0.7 -0.3
v 1.4 0.8 0.2
v 1.4 0.8 0.1
v 1.4 0.8 5.96046e-08
v 1.4 0.8 -0.2
v 1.4 0.8 -0.3
v 1.4 0.8 -0.4
v 1.4 0.9 0.1
v 1.4 0.9 5.96046e-08
v 1.4 0.9 -0.2
v 1.4 0.9 -0.3
v 1.4 1 0.2
v 1.4 1 0.1
v 1.4 1 5.96046e-08
v 1.4 1 -0.2
v 1.4 1 -0.3
v 1.4 1 -0.4
v 1.4 1.1 0.1
v 1.4 1.1 -0.3
v -0.2 0.7 0.6
v -0.2 0.9 0.6
v -0.1 0.6 0.6
v -0.1 0.7 0.6
v -0.1 0.9 0.6
v -0.1 1 0.6
v 0.1 0.6 0.6
v 0.1 0.7 0.6
v 0.1 0.9 0.6
v 0.1 1 0.6
v 0.2 0.7 0.6
v 0.2 0.9 0.6
v -1.3 0 0.5
v -1.3 1 0.5
v -1.3 1.1 0.5
v -1.3 1.3 0.5
v -0.7 0 0.5
v -0.7 1 0.5
v -0.7 1.1 0.5
v -0.7 1.3 0.5
v -0.6 0 0.5
v -0.6 1 0.5
v -0.6 1.1 0.5
v -0.6 1.3 0.5
v -0.2 0.7 0.5
v -0.2 0.9 0.5
v -0.2 1 0.5
v -0.1 0.6 0.5
v -0.1 0.7 0.5
v -0.1 0.8 0.5
v -0.1 0.9 0.5
v -0.1 1 0.5
v -0.1 1.1 0.5
v -0.1 1.2 0.5
v 0.1 0.6 0.5
v 0.1 0.7 0.5
v 0.1 0.8 0.5
v 0.1 0.9 0.5
v 0.1 1 0.5
v 0.1 1.1 0.5
v 0.1 1.2 0.5
v 0.2 0.7 0.5
v 0.2 0.9 0.5
v 0.2 1 0.5
v 0.6 0 0.5
v 0.6 1 0.5
v 0.6 1.1 0.5
v 0.6 1.3 0.5
v 0.7 0 0.5
v 0.7 1 0.5
v 0.7 1.1 0.5
v 0.7 1.3 0.5
v 1.3 0 0.5
v 1.3 1 0.5
v 1.3 1.1 0.5
v 1.3 1.3 0.5
v -1.3 1.3 0.4
v -1.3 1.5 0.4
v -0.7 1.3 0.4
v -0.7 1.5 0.4
v -0.6 1.3 0.4
v -0.6 1.5 0.4
v 0.6 1.3 0.4
v 0.6 1.5 0.4
v 0.7 1.3 0.4
v 0.7 1.5 0.4
v 1.3 1.3 0.4
v 1.3 1.5 0.4
v -1.3 1.5 0.3
v -1.3 1.6 0.3
v -0.7 1.5 0.3
v -0.7 1.6 0.3
v -0.6 1.5 0.3
v -0.6 1.6 0.3
v 0.6 1.5 0.3
v 0.6 1.6 0.3
v 0.7 1.5 0.3
v 0.7 1.6 0.3
v 1.3 1.5 0.3
v 1.3 1.6 0.3
v -1.4 0.8 0.2
v -1.4 1 0.2
v -1.3 0.8 0.2
v -1.3 1 0.2
v 1.3 0.8 0.2
v 1.3 1 0.2
v 1.4 0.8 0.2
v 1.4 1 0.2
v -1.4 0.7 0.1
v -1.4 0.8 0.1
v -1.4 1 0.1
v -1.4 1.1 0.1
v -1.3 0.7 0.1
v -1.3 0.8 0.1
v -1.3 1 0.1
v -1.3 1.1 0.1
v -1.3 1.6 0.1
v -1.3 1.7 0.1
v -0.7 1.6 0.1
v -0.7 1.7 0.1
v -0.6 1.6 0.1
v -0.6 1.7 0.1
v 0.6 1.6 0.1
v 0.6 1.7 0.1
v 0.7 1.6 0.1
v 0.7 1.7 0.1
v 1.3 0.7 0.1
v 1.3 0.8 0.1
v 1.3 1 0.1
v 1.3 1.1 0.1
v 1.3 1.6 0.1
v 1.3 1.7 0.1
v 1.4 0.7 0.1
v 1.4 0.8 0.1
v 1.4 1 0.1
v 1.4 1.1 0.1
v -1.4 0.6 5.96046e-08
v -1.4 0.7 5.96046e-08
v -1.3 0.6 5.96046e-08
v -1.3 0.7 5.96046e-08
v 1.3 0.6 5.96046e-08
v 1.3 0.7 5.96046e-08
v 1.4 0.6 5.96046e-08
v 1.4 0.7 5.96046e-08
v -1.4 0.7 -0.2
v -1.4 0.8 -0.2
v -1.3 0.7 -0.2
v -1.3 0.8 -0.2
v 1.3 0.7 -0.2
v 1.3 0.8 -0.2
v 1.4 0.7 -0.2
v 1.4 0.8 -0.2
v -1.4 0.8 -0.3
v -1.4 0.9 -0.3
v -1.3 0.8 -0.3
v -1.3 0.9 -0.3
v 1.3 0.8 -0.3
v 1.3 0.9 -0.3
v 1.4 0.8 -0.3
v 1.4 0.9 -0.3
v -1.4 0.8 0.1
v -1.4 0.9 0.1
v -1.3 0.8 0.1
v -1.3 0.9 0.1
v 1.3 0.8 0.1
v 1.3 0.9 0.1
v 1.4 0.8 0.1
v 1.4 0.9 0.1
v -1.4 0.7 5.96046e-08
v -1.4 0.8 5.96046e-08
v -1.3 0.7 5.96046e-08
v -1.3 0.8 5.96046e-08
v 1.3 0.7 5.96046e-08
v 1.3 0.8 5.96046e-08
v 1.4 0.7 5.96046e-08
v 1.4 0.8 5.96046e-08
v -1.4 0.6 -0.2
v -1.4 0.7 -0.2
v -1.3 0.6 -0.2
v -1.3 0.7 -0.2
v 1.3 0.6 -0.2
v 1.3 0.7 -0.2
v 1.4 0.6 -0.2
v 1.4 0.7 -0.2
v -1.4 0.7 -0.3
v -1.4 0.8 -0.3
v -1.4 1 -0.3
v -1.4 1.1 -0.3
v -1.3 0.7 -0.3
v -1.3 0.8 -0.3
v -1.3 1 -0.3
v -1.3 1.1 -0.3
v -1.3 1.6 -0.3
v -1.3 1.7 -0.3
v -0.7 1.6 -0.3
v -0.7 1.7 -0.3
v -0.6 1.6 -0.3
v -0.6 1.7 -0.3
v 0.6 1.6 -0.3
v 0.6 1.7 -0.3
v 0.7 1.6 -0.3
v 0.7 1.7 -0.3
v 1.3 0.7 -0.3
v 1.3 0.8 -0.3
v 1.3 1 -0.3
v 1.3 1.1 -0.3
v 1.3 1.6 -0.3
v 1.3 1.7 -0.3
v 1.4 0.7 -0.3
v 1.4 0.8 -0.3
v 1.4 1 -0.3
v 1.4 1.1 -0.3
v -1.4 0.8 -0.4
v -1.4 1 -0.4
v -1.3 0.8 -0.4
v -1.3 1 -0.4
v 1.3 0.8 -0.4
v 1.3 1 -0.4
v 1.4 0.8 -0.4
v 1.4 1 -0.4
v -1.3 1.5 -0.5
v -1.3 1.6 -0.5
v -0.7 1.5 -0.5
v -0.7 1.6 -0.5
v -0.6 1.5 -0.5
v -0.6 1.6 -0.5
v 0.6 1.5 -0.5
v 0.6 1.6 -0.5
v 0.7 1.5 -0.5
v 0.7 1.6 -0.5
v 1.3 1.5 -0.5
v 1.3 1.6 -0.5
v -1.3 1.3 -0.6
v -1.3 1.5 -0.6
v -0.7 1.3 -0.6
v -0.7 1.5 -0.6
v -0.6 1.3 -0.6
v -0.6 1.5 -0.6
v 0.6 1.3 -0.6
v 0.6 1.5 -0.6
v 0.7 1.3 -0.6
v 0.7 1.5 -0.6
v 1.3 1.3 -0.6
v 1.3 1.5 -0.6
v -1.3 0 -0.7
v -1.3 1 -0.7
v -1.3 1.1 -0.7
v -1.3 1.3 -0.7
v -1 1 -0.7
v -1 1.1 -0.7
v -0.7 0 -0.7
v -0.7 1 -0.7
v -0.7 1.1 -0.7
v -0.7 1.3 -0.7
v -0.6 0 -0.7
v -0.6 1 -0.7
v -0.6 1.1 -0.7
v -0.6 1.3 -0.7
v 0.6 0 -0.7
v 0.6 1 -0.7
v 0.6 1.1 -0.7
v 0.6 1.3 -0.7
v 0.7 0 -0.7
v 0.7 1 -0.7
v 0.7 1.1 -0.7
v 0.7 1.3 -0.7
v 1 1 -0.7
v 1 1.1 -0.7
v 1.3 0 -0.7
v 1.3 1 -0.7
v 1.3 1.1 -0.7
v 1.3 1.3 -0.7
v -1.3 0 0.5
v -0.7 0 0.5
v -0.6 0 0.5
v 0.6 0 0.5
v 0.7 0 0.5
v 1.3 0 0.5
v -1.3 0 -0.7
v -0.7 0 -0.7
v -0.6 0 -0.7
v 0.6 0 -0.7
v 0.7 0 -0.7
v 1.3 0 -0.7
v -0.1 0.6 0.6
v 0.1 0.6 0.6
v -0.1 0.6 0.5
v 0.1 0.6 0.5
v -1.4 0.6 5.96046e-08
v -1.3 0.6 5.96046e-08
v 1.3 0.6 5.96046e-08
v 1.4 0.6 5.96046e-08
v -1.4 0.6 -0.2
v -1.3 0.6 -0.2
v 1.3 0.6 -0.2
v 1.4 0.6 -0.2
v -0.2 0.7 0.6
v -0.1 0.7 0.6
v 0.1 0.7 0.6
v 0.2 0.7 0.6
v -0.2 0.7 0.5
v -0.1 0.7 0.5
v 0.1 0.7 0.5
v 0.2 0.7 0.5
v -1.4 0.7 0.1
v -1.3 0.7 0.1
v 1.3 0.7 0.1
v 1.4 0.7 0.1
v -1.4 0.7 5.96046e-08
v -1.3 0.7 5.96046e-08
v 1.3 0.7 5.96046e-08
v 1.4 0.7 5.96046e-08
v -1.4 0.7 -0.2
v -1.3 0.7 -0.2
v 1.3 0.7 -0.2
v 1.4 0.7 -0.2
v -1.4 0.7 -0.3
v -1.3 0.7 -0.3
v 1.3 0.7 -0.3
v 1.4 0.7 -0.3
v -1.4 0.8 0.2
v -1.3 0.8 0.2
v 1.3 0.8 0.2
v 1.4 0.8 0.2
v -1.4 0.8 0.1
v -1.3 0.8 0.1
v 1.3 0.8 0.1
v 1.4 0.8 0.1
v -1.4 0.8 -0.3
v -1.3 0.8 -0.3
v 1.3 0.8 -0.3
v 1.4 0.8 -0.3
v -1.4 0.8 -0.4
v -1.3 0.8 -0.4
v 1.3 0.8 -0.4
v 1.4 0.8 -0.4
v -0.1 0.9 0.6
v 0.1 0.9 0.6
v -0.1 0.9 0.5
v 0.1 0.9 0.5
v -1.4 0.9 0.1
v -1.3 0.9 0.1
v 1.3 0.9 0.1
v 1.4 0.9 0.1
v -1.4 0.9 5.96046e-08
v -1.3 0.9 5.96046e-08
v 1.3 0.9 5.96046e-08
v 1.4 0.9 5.96046e-08
v -1.4 0.9 -0.2
v -1.3 0.9 -0.2
v 1.3 0.9 -0.2
v 1.4 0.9 -0.2
v -1.4 0.9 -0.3
v -1.3 0.9 -0.3
v 1.3 0.9 -0.3
v 1.4 0.9 -0.3
v -0.1 0.7 0.6
v 0.1 0.7 0.6
v -0.1 0.7 0.5
v 0.1 0.7 0.5
v -1.4 0.7 5.96046e-08
v -1.3 0.7 5.96046e-08
v 1.3 0.7 5.96046e-08
v 1.4 0.7 5.96046e-08
v -1.4 0.7 -0.2
v -1.3 0.7 -0.2
v 1.3 0.7 -0.2
v 1.4 0.7 -0.2
v -1.4 0.8 0.1
v -1.3 0.8 0.1
v 1.3 0.8 0.1
v 1.4 0.8 0.1
v -1.4 0.8 5.96046e-08
v -1.3 0.8 5.96046e-08
v 1.3 0.8 5.96046e-08
v 1.4 0.8 5.96046e-08
v -1.4 0.8 -0.2
v -1.3 0.8 -0.2
v 1.3 0.8 -0.2
v 1.4 0.8 -0.2
v -1.4 0.8 -0.3
v -1.3 0.8 -0.3
v 1.3 0.8 -0.3
v 1.4 0.8 -0.3
v -0.2 0.9 0.6
v -0.1 0.9 0.6
v 0.1 0.9 0.6
v 0.2 0.9 0.6
v -0.2 0.9 0.5
v -0.1 0.9 0.5
v 0.1 0.9 0.5
v 0.2 0.9 0.5
v -0.1 1 0.6
v 0.1 1 0.6
v -0.1 1 0.5
v 0.1 1 0.5
v -1.4 1 0.2
v -1.3 1 0.2
v 1.3 1 0.2
v 1.4 1 0.2
v -1.4 1 0.1
v -1.3 1 0.1
v 1.3 1 0.1
v 1.4 1 0.1
v -1.4 1 -0.3
v -1.3 1 -0.3
v 1.3 1 -0.3
v 1.4 1 -0.3
v -1.4 1 -0.4
v -1.3 1 -0.4
v 1.3 1 -0.4
v 1.4 1 -0.4
v -1.4 1.1 0.1
v -1.3 1.1 0.1
v 1.3 1.1 0.1
v 1.4 1.1 0.1
v -1.4 1.1 -0.3
v -1.3 1.1 -0.3
v 1.3 1.1 -0.3
v 1.4 1.1 -0.3
v -1.3 1.3 0.5
v -0.7 1.3 0.5
v -0.6 1.3 0.5
v 0.6 1.3 0.5
v 0.7 1.3 0.5
v 1.3 1.3 0.5
v -1.3 1.3 0.4
v -0.7 1.3 0.4
v -0.6 1.3 0.4
v 0.6 1.3 0.4
v 0.7 1.3 0.4
v 1.3 1.3 0.4
v -1.3 1.3 -0.6
v -0.7 1.3 -0.6
v -0.6 1.3 -0.6
v 0.6 1.3 -0.6
v 0.7 1.3 -0.6
v 1.3 1.3 -0.6
v -1.3 1.3 -0.7
v -0.7 1.3 -0.7
v -0.6 1.3 -0.7
v 0.6 1.3 -0.7
v 0.7 1.3 -0.7
v 1.3 1.3 -0.7
v -1.3 1.5 0.4
v -0.7 1.5 0.4
v -0.6 1.5 0.4
v 0.6 1.5 0.4
v 0.7 1.5 0.4
v 1.3 1.5 0.4
v -1.3 1.5 0.3
v -0.7 1.5 0.3
v -0.6 1.5 0.3
v 0.6 1.5 0.3
v 0.7 1.5 0.3
v 1.3 1.5 0.3
v -1.3 1.5 -0.5
v -0.7 1.5 -0.5
v -0.6 1.5 -0.5
v 0.6 1.5 -0.5
v 0.7 1.5 -0.5
v 1.3 1.5 -0.5
v -1.3 1.5 -0.6
v -0.7 1.5 -0.6
v -0.6 1.5 -0.6
v 0.6 1.5 -0.6
v 0.7 1.5 -0.6
v 1.3 1.5 -0.6
v -1.3 1.6 0.3
v -0.7 1.6 0.3
v -0.6 1.6 0.3
v 0.6 1.6 0.3
v 0.7 1.6 0.3
v 1.3 1.6 0.3
v -1.3 1.6 0.1
v -0.7 1.6 0.1
v -0.6 1.6 0.1
v 0.6 1.6 0.1
v 0.7 1.6 0.1
v 1.3 1.6 0.1
v -1.3 1.6 -0.3
v -0.7 1.6 -0.3
v -0.6 1.6 -0.3
v 0.6 1.6 -0.3
v 0.7 1.6 -0.3
v 1.3 1.6 -0.3
v -1.3 1.6 -0.5
v -0.7 1.6 -0.5
v -0.6 1.6 -0.5
v 0.6 1.6 -0.5
v 0.7 1.6 -0.5
v 1.3 1.6 -0.5
v -1.3 1.7 0.1
v -0.7 1.7 0.1
v -0.6 1.7 0.1
v 0.6 1.7 0.1
v 0.7 1.7 0.1
v 1.3 1.7 0.1
v -1.3 1.7 -0.3
v -0.7 1.7 -0.3
v -0.6 1.7 -0.3
v 0.6 1.7 -0.3
v 0.7 1.7 -0.3
v 1.3 1.7 -0.3

# faces
f 4/3/1 2/3/1 1/3/1
f 5/3/1 2/3/1 4/3/1
f 8/3/1 4/3/1 3/3/1
f 9/3/1 4/3/1 8/3/1
f 10/3/1 6/3/1 5/3/1
f 11/3/1 6/3/1 10/3/1
f 13/3/1 8/3/1 7/3/1
f 16/3/1 12/3/1 11/3/1
f 17/3/1 13/3/1 7/3/1
f 18/2/1 14/2/1 13/2/1
f 18/3/1 13/3/1 17/3/1
f 19/3/1 15/3/1 14/3/1
f 19/2/1 14/2/1 18/2/1
f 20/2/1 16/2/1 15/2/1
f 20/3/1 15/3/1 19/3/1
f 21/3/1 12/3/1 16/3/1
f 21/2/1 16/2/1 20/2/1
f 22/3/1 12/3/1 21/3/1
f 23/2/1 19/2/1 18/2/1
f 23/2/1 21/2/1 20/2/1
f 23/2/1 20/2/1 19/2/1
f 24/2/1 21/2/1 23/2/1
f 27/1/1 26/1/1 25/1/1
f 28/1/1 26/1/1 27/1/1
f 29/1/1 27/1/1 25/1/1
f 30/1/1 27/1/1 29/1/1
f 31/1/1 26/1/1 28/1/1
f 32/1/1 26/1/1 31/1/1
f 33/1/1 29/1/1 25/1/1
f 34/1/1 29/1/1 33/1/1
f 35/1/1 31/1/1 30/1/1
f 36/1/1 31/1/1 35/1/1
f 37/1/1 26/1/1 32/1/1
f 38/1/1 26/1/1 37/1/1
f 39/1/1 36/1/1 35/1/1
f 39/1/1 37/1/1 36/1/1
f 39/1/1 35/1/1 34/1/1
f 40/1/1 37/1/1 39/1/1
f 41/1/1 37/1/1 40/1/1
f 42/1/1 37/1/1 41/1/1
f 43/1/1 33/1/1 25/1/1
f 44/1/1 33/1/1 43/1/1
f 47/1/1 26/1/1 38/1/1
f 48/1/1 26/1/1 47/1/1
f 49/2/1 45/2/1 44/2/1
f 49/2/1 44/2/1 43/2/1
f 50/2/1 45/2/1 49/2/1
f 51/2/1 48/2/1 47/2/1
f 51/2/1 47/2/1 46/2/1
f 52/2/1 48/2/1 51/2/1
f 53/1/1 50/1/1 49/1/1
f 53/1/1 51/1/1 50/1/1
f 53/1/1 52/1/1 51/1/1
f 54/1/1 52/1/1 53/1/1
f 55/1/1 52/1/1 54/1/1
f 56/1/1 52/1/1 55/1/1
f 57/1/1 55/1/1 54/1/1
f 58/1/1 55/1/1 57/1/1
f 59/1/1 55/1/1 58/1/1
f 60/1/1 55/1/1 59/1/1
f 61/1/1 59/1/1 58/1/1
f 62/1/1 59/1/1 61/1/1
f 63/1/1 59/1/1 62/1/1
f 64/1/1 59/1/1 63/1/1
f 65/1/1 63/1/1 62/1/1
f 66/1/1 63/1/1 65/1/1
f 69/4/1 68/4/1 67/4/1
f 70/4/1 68/4/1 69/4/1
f 73/4/1 72/4/1 71/4/1
f 74/4/1 72/4/1 73/4/1
f 77/4/1 76/4/1 75/4/1
f 78/4/1 76/4/1 77/4/1
f 81/4/1 80/4/1 79/4/1
f 82/4/1 81/4/1 79/4/1
f 83/4/1 81/4/1 82/4/1
f 84/4/2 85/4/2 86/4/2
f 84/4/2 86/4/2 87/4/2
f 87/4/2 86/4/2 88/4/2
f 89/4/2 90/4/2 91/4/2
f 91/4/2 90/4/2 92/4/2
f 93/4/2 94/4/2 95/4/2
f 95/4/2 94/4/2 96/4/2
f 97/4/2 98/4/2 99/4/2
f 99/4/2 98/4/2 100/4/2
f 101/1/2 102/1/2 103/1/2
f 103/1/2 102/1/2 104/1/2
f 101/1/2 103/1/2 105/1/2
f 105/1/2 103/1/2 106/1/2
f 104/1/2 102/1/2 107/1/2
f 107/1/2 102/1/2 108/1/2
f 101/1/2 105/1/2 109/1/2
f 109/1/2 105/1/2 110/1/2
f 106/1/2 107/1/2 111/1/2
f 111/1/2 107/1/2 112/1/2
f 108/1/2 102/1/2 113/1/2
f 113/1/2 102/1/2 114/1/2
f 111/1/2 112/1/2 115/1/2
f 112/1/2 113/1/2 115/1/2
f 110/1/2 111/1/2 115/1/2
f 115/1/2 113/1/2 116/1/2
f 116/1/2 113/1/2 117/1/2
f 117/1/2 113/1/2 118/1/2
f 101/1/2 109/1/2 119/1/2
f 119/1/2 109/1/2 120/1/2
f 114/1/2 102/1/2 123/1/2
f 123/1/2 102/1/2 124/1/2
f 120/2/2 121/2/2 125/2/2
f 119/2/2 120/2/2 125/2/2
f 125/2/2 121/2/2 126/2/2
f 123/2/2 124/2/2 127/2/2
f 122/2/2 123/2/2 127/2/2
f 127/2/2 124/2/2 128/2/2
f 125/1/2 126/1/2 129/1/2
f 126/1/2 127/1/2 129/1/2
f 127/1/2 128/1/2 129/1/2
f 129/1/2 128/1/2 130/1/2
f 130/1/2 128/1/2 131/1/2
f 131/1/2 128/1/2 132/1/2
f 130/1/2 131/1/2 133/1/2
f 133/1/2 131/1/2 134/1/2
f 134/1/2 131/1/2 135/1/2
f 135/1/2 131/1/2 136/1/2
f 134/1/2 135/1/2 137/1/2
f 137/1/2 135/1/2 138/1/2
f 138/1/2 135/1/2 139/1/2
f 139/1/2 135/1/2 140/1/2
f 138/1/2 139/1/2 141/1/2
f 141/1/2 139/1/2 142/1/2
f 143/3/2 144/3/2 146/3/2
f 146/3/2 144/3/2 147/3/2
f 145/3/2 146/3/2 150/3/2
f 150/3/2 146/3/2 151/3/2
f 147/3/2 148/3/2 152/3/2
f 152/3/2 148/3/2 153/3/2
f 149/3/2 150/3/2 155/3/2
f 153/3/2 154/3/2 158/3/2
f 149/3/2 155/3/2 159/3/2
f 155/2/2 156/2/2 160/2/2
f 159/3/2 155/3/2 160/3/2
f 156/3/2 157/3/2 161/3/2
f 160/2/2 156/2/2 161/2/2
f 157/2/2 158/2/2 162/2/2
f 161/3/2 157/3/2 162/3/2
f 158/3/2 154/3/2 163/3/2
f 162/2/2 158/2/2 163/2/2
f 163/3/2 154/3/2 164/3/2
f 160/2/2 161/2/2 165/2/2
f 162/2/2 163/2/2 165/2/2
f 161/2/2 162/2/2 165/2/2
f 165/2/2 163/2/2 166/2/2
f 170/4/3 168/4/3 167/4/3
f 171/4/3 168/4/3 170/4/3
f 173/4/3 170/4/3 169/4/3
f 174/4/3 170/4/3 173/4/3
f 175/4/3 172/4/3 171/4/3
f 176/4/3 172/4/3 175/4/3
f 177/4/3 175/4/3 174/4/3
f 178/4/3 175/4/3 177/4/3
f 183/1/3 180/1/3 179/1/3
f 184/2/3 181/2/3 180/2/3
f 184/1/3 180/1/3 183/1/3
f 185/1/3 182/1/3 181/1/3
f 185/2/3 181/2/3 184/2/3
f 186/1/3 182/1/3 185/1/3
f 187/3/3 184/3/3 183/3/3
f 188/2/3 185/2/3 184/2/3
f 188/3/3 184/3/3 187/3/3
f 189/3/3 186/3/3 185/3/3
f 189/2/3 185/2/3 188/2/3
f 190/3/3 186/3/3 189/3/3
f 191/1/3 188/1/3 187/1/3
f 192/1/3 188/1/3 191/1/3
f 193/2/3 189/2/3 188/2/3
f 193/1/3 188/1/3 192/1/3
f 194/1/3 191/1/3 187/1/3
f 195/1/3 191/1/3 194/1/3
f 197/2/3 193/2/3 192/2/3
f 198/2/3 189/2/3 193/2/3
f 198/2/3 193/2/3 197/2/3
f 199/1/3 190/1/3 189/1/3
f 199/2/3 189/2/3 198/2/3
f 200/1/3 190/1/3 199/1/3
f 201/1/3 194/1/3 187/1/3
f 202/1/3 196/1/3 195/1/3
f 203/2/3 197/2/3 196/2/3
f 203/1/3 196/1/3 202/1/3
f 204/2/3 197/2/3 203/2/3
f 205/2/3 200/2/3 199/2/3
f 205/2/3 199/2/3 198/2/3
f 206/2/3 200/2/3 205/2/3
f 207/1/3 190/1/3 200/1/3
f 207/2/3 200/2/3 206/2/3
f 208/1/3 202/1/3 201/1/3
f 209/2/3 206/2/3 205/2/3
f 209/2/3 205/2/3 204/2/3
f 210/2/3 206/2/3 209/2/3
f 211/1/3 208/1/3 201/1/3
f 211/1/3 201/1/3 187/1/3
f 211/1/3 210/1/3 209/1/3
f 211/1/3 209/1/3 208/1/3
f 212/2/3 206/2/3 210/2/3
f 212/1/3 210/1/3 211/1/3
f 213/1/3 207/1/3 206/1/3
f 213/2/3 206/2/3 212/2/3
f 214/1/3 190/1/3 207/1/3
f 214/1/3 207/1/3 213/1/3
f 215/3/3 212/3/3 211/3/3
f 216/2/3 213/2/3 212/2/3
f 216/3/3 212/3/3 215/3/3
f 217/3/3 214/3/3 213/3/3
f 217/2/3 213/2/3 216/2/3
f 218/3/3 214/3/3 217/3/3
f 219/1/3 216/1/3 215/1/3
f 220/2/3 217/2/3 216/2/3
f 220/1/3 216/1/3 219/1/3
f 221/1/3 218/1/3 217/1/3
f 221/2/3 217/2/3 220/2/3
f 222/1/3 218/1/3 221/1/3
f 225/1/3 224/1/3 223/1/3
f 226/1/3 224/1/3 225/1/3
f 227/3/3 226/3/3 225/3/3
f 228/3/3 226/3/3 227/3/3
f 229/1/3 228/1/3 227/1/3
f 230/1/3 228/1/3 229/1/3
f 231/3/3 230/3/3 229/3/3
f 232/3/3 230/3/3 231/3/3
f 233/1/3 232/1/3 231/1/3
f 234/1/3 232/1/3 233/1/3
f 237/1/3 236/1/3 235/1/3
f 238/1/3 236/1/3 237/1/3
f 239/3/3 238/3/3 237/3/3
f 240/3/3 238/3/3 239/3/3
f 241/1/3 240/1/3 239/1/3
f 242/1/3 240/1/3 241/1/3
f 243/3/3 242/3/3 241/3/3
f 244/3/3 242/3/3 243/3/3
f 245/1/3 244/1/3 243/1/3
f 246/1/3 244/1/3 245/1/3
f 249/3/3 248/3/3 247/3/3
f 250/3/3 248/3/3 249/3/3
f 253/3/3 252/3/3 251/3/3
f 254/3/3 252/3/3 253/3/3
f 259/3/3 256/3/3 255/3/3
f 260/3/3 256/3/3 259/3/3
f 261/2/3 258/2/3 257/2/3
f 262/2/3 258/2/3 261/2/3
f 265/1/3 264/1/3 263/1/3
f 266/1/3 264/1/3 265/1/3
f 267/3/3 266/3/3 265/3/3
f 268/3/3 266/3/3 267/3/3
f 269/1/3 268/1/3 267/1/3
f 270/1/3 268/1/3 269/1/3
f 271/3/3 270/3/3 269/3/3
f 272/3/3 270/3/3 271/3/3
f 277/1/3 272/1/3 271/1/3
f 278/1/3 272/1/3 277/1/3
f 279/3/3 274/3/3 273/3/3
f 280/3/3 274/3/3 279/3/3
f 281/2/3 276/2/3 275/2/3
f 282/2/3 276/2/3 281/2/3
f 285/3/3 284/3/3 283/3/3
f 286/3/3 284/3/3 285/3/3
f 289/3/3 288/3/3 287/3/3
f 290/3/3 288/3/3 289/3/3
f 293/3/3 292/3/3 291/3/3
f 294/3/3 292/3/3 293/3/3
f 297/3/3 296/3/3 295/3/3
f 298/3/3 296/3/3 297/3/3
f 301/3/3 300/3/3 299/3/3
f 302/3/3 300/3/3 301/3/3
f 305/3/3 304/3/3 303/3/3
f 306/3/3 304/3/3 305/3/3
f 307/3/4 308/3/4 309/3/4
f 309/3/4 308/3/4 310/3/4
f 311/3/4 312/3/4 313/3/4
f 313/3/4 312/3/4 314/3/4
f 315/3/4 316/3/4 317/3/4
f 317/3/4 316/3/4 318/3/4
f 319/3/4 320/3/4 321/3/4
f 321/3/4 320/3/4 322/3/4
f 323/3/4 324/3/4 325/3/4
f 325/3/4 324/3/4 326/3/4
f 327/3/4 328/3/4 329/3/4
f 329/3/4 328/3/4 330/3/4
f 331/3/4 332/3/4 335/3/4
f 335/3/4 332/3/4 336/3/4
f 333/2/4 334/2/4 337/2/4
f 337/2/4 334/2/4 338/2/4
f 339/1/4 340/1/4 341/1/4
f 341/1/4 340/1/4 342/1/4
f 341/3/4 342/3/4 343/3/4
f 343/3/4 342/3/4 344/3/4
f 343/1/4 344/1/4 345/1/4
f 345/1/4 344/1/4 346/1/4
f 345/3/4 346/3/4 347/3/4
f 347/3/4 346/3/4 348/3/4
f 347/1/4 348/1/4 353/1/4
f 353/1/4 348/1/4 354/1/4
f 349/3/4 350/3/4 355/3/4
f 355/3/4 350/3/4 356/3/4
f 351/2/4 352/2/4 357/2/4
f 357/2/4 352/2/4 358/2/4
f 359/3/4 360/3/4 361/3/4
f 361/3/4 360/3/4 362/3/4
f 363/3/4 364/3/4 365/3/4
f 365/3/4 364/3/4 366/3/4
f 367/1/4 368/1/4 369/1/4
f 369/1/4 368/1/4 370/1/4
f 369/3/4 370/3/4 371/3/4
f 371/3/4 370/3/4 372/3/4
f 371/1/4 372/1/4 373/1/4
f 373/1/4 372/1/4 374/1/4
f 373/3/4 374/3/4 375/3/4
f 375/3/4 374/3/4 376/3/4
f 375/1/4 376/1/4 377/1/4
f 377/1/4 376/1/4 378/1/4
f 379/1/4 380/1/4 381/1/4
f 381/1/4 380/1/4 382/1/4
f 381/3/4 382/3/4 383/3/4
f 383/3/4 382/3/4 384/3/4
f 383/1/4 384/1/4 385/1/4
f 385/1/4 384/1/4 386/1/4
f 385/3/4 386/3/4 387/3/4
f 387/3/4 386/3/4 388/3/4
f 387/1/4 388/1/4 389/1/4
f 389/1/4 388/1/4 390/1/4
f 391/1/4 392/1/4 395/1/4
f 392/2/4 393/2/4 395/2/4
f 393/1/4 394/1/4 396/1/4
f 395/2/4 393/2/4 396/2/4
f 391/1/4 395/1/4 397/1/4
f 395/5/4 396/5/4 398/5/4
f 397/1/4 395/1/4 398/1/4
f 396/1/4 394/1/4 399/1/4
f 398/5/4 396/5/4 399/5/4
f 399/1/4 394/1/4 400/1/4
f 397/3/4 398/3/4 401/3/4
f 398/3/4 399/3/4 401/3/4
f 399/3/4 400/3/4 401/3/4
f 401/3/4 400/3/4 402/3/4
f 402/3/4 400/3/4 403/3/4
f 403/3/4 400/3/4 404/3/4
f 401/1/4 402/1/4 405/1/4
f 402/2/4 403/2/4 406/2/4
f 405/1/4 402/1/4 406/1/4
f 403/1/4 404/1/4 407/1/4
f 406/2/4 403/2/4 407/2/4
f 407/1/4 404/1/4 408/1/4
f 405/3/4 406/3/4 409/3/4
f 406/3/4 407/3/4 409/3/4
f 407/3/4 408/3/4 409/3/4
f 409/3/4 408/3/4 410/3/4
f 410/3/4 408/3/4 411/3/4
f 411/3/4 408/3/4 412/3/4
f 409/1/4 410/1/4 413/1/4
f 410/5/4 411/5/4 413/5/4
f 411/1/4 412/1/4 414/1/4
f 413/5/4 411/5/4 414/5/4
f 409/1/4 413/1/4 415/1/4
f 413/2/4 414/2/4 416/2/4
f 415/1/4 413/1/4 416/1/4
f 414/1/4 412/1/4 417/1/4
f 416/2/4 414/2/4 417/2/4
f 417/1/4 412/1/4 418/1/4
f 425/1/5 420/1/5 419/1/5
f 426/3/5 421/3/5 420/3/5
f 426/1/5 420/1/5 425/1/5
f 427/1/5 422/1/5 421/1/5
f 427/3/5 421/3/5 426/3/5
f 428/3/5 423/3/5 422/3/5
f 428/1/5 422/1/5 427/1/5
f 429/1/5 424/1/5 423/1/5
f 429/3/5 423/3/5 428/3/5
f 430/1/5 424/1/5 429/1/5
f 433/4/5 432/4/5 431/4/5
f 434/4/5 432/4/5 433/4/5
f 439/3/5 436/3/5 435/3/5
f 440/3/5 436/3/5 439/3/5
f 441/3/5 438/3/5 437/3/5
f 442/3/5 438/3/5 441/3/5
f 447/4/5 444/4/5 443/4/5
f 448/4/5 444/4/5 447/4/5
f 449/4/5 446/4/5 445/4/5
f 450/4/5 446/4/5 449/4/5
f 455/3/5 452/3/5 451/3/5
f 456/3/5 452/3/5 455/3/5
f 457/3/5 454/3/5 453/3/5
f 458/3/5 454/3/5 457/3/5
f 463/3/5 460/3/5 459/3/5
f 464/3/5 460/3/5 463/3/5
f 465/3/5 462/3/5 461/3/5
f 466/3/5 462/3/5 465/3/5
f 471/3/5 468/3/5 467/3/5
f 472/3/5 468/3/5 471/3/5
f 473/3/5 470/3/5 469/3/5
f 474/3/5 470/3/5 473/3/5
f 479/3/5 476/3/5 475/3/5
f 480/3/5 476/3/5 479/3/5
f 481/3/5 478/3/5 477/3/5
f 482/3/5 478/3/5 481/3/5
f 485/4/5 484/4/5 483/4/5
f 486/4/5 484/4/5 485/4/5
f 491/2/5 488/2/5 487/2/5
f 492/2/5 488/2/5 491/2/5
f 493/2/5 490/2/5 489/2/5
f 494/2/5 490/2/5 493/2/5
f 495/3/5 492/3/5 491/3/5
f 496/3/5 492/3/5 495/3/5
f 497/3/5 494/3/5 493/3/5
f 498/3/5 494/3/5 497/3/5
f 499/2/5 496/2/5 495/2/5
f 500/2/5 496/2/5 499/2/5
f 501/2/5 498/2/5 497/2/5
f 502/2/5 498/2/5 501/2/5
f 503/4/6 504/4/6 505/4/6
f 505/4/6 504/4/6 506/4/6
f 507/3/6 508/3/6 511/3/6
f 511/3/6 508/3/6 512/3/6
f 509/3/6 510/3/6 513/3/6
f 513/3/6 510/3/6 514/3/6
f 515/3/6 516/3/6 519/3/6
f 519/3/6 516/3/6 520/3/6
f 517/3/6 518/3/6 521/3/6
f 521/3/6 518/3/6 522/3/6
f 523/3/6 524/3/6 527/3/6
f 527/3/6 524/3/6 528/3/6
f 525/3/6 526/3/6 529/3/6
f 529/3/6 526/3/6 530/3/6
f 531/4/6 532/4/6 535/4/6
f 535/4/6 532/4/6 536/4/6
f 533/4/6 534/4/6 537/4/6
f 537/4/6 534/4/6 538/4/6
f 539/4/6 540/4/6 541/4/6
f 541/4/6 540/4/6 542/4/6
f 543/3/6 544/3/6 547/3/6
f 547/3/6 544/3/6 548/3/6
f 545/3/6 546/3/6 549/3/6
f 549/3/6 546/3/6 550/3/6
f 551/3/6 552/3/6 555/3/6
f 555/3/6 552/3/6 556/3/6
f 553/3/6 554/3/6 557/3/6
f 557/3/6 554/3/6 558/3/6
f 559/2/6 560/2/6 563/2/6
f 563/2/6 560/2/6 564/2/6
f 561/2/6 562/2/6 565/2/6
f 565/2/6 562/2/6 566/2/6
f 567/1/6 568/1/6 573/1/6
f 568/3/6 569/3/6 574/3/6
f 573/1/6 568/1/6 574/1/6
f 569/1/6 570/1/6 575/1/6
f 574/3/6 569/3/6 575/3/6
f 570/3/6 571/3/6 576/3/6
f 575/1/6 570/1/6 576/1/6
f 571/1/6 572/1/6 577/1/6
f 576/3/6 571/3/6 577/3/6
f 577/1/6 572/1/6 578/1/6
f 579/1/6 580/1/6 585/1/6
f 580/3/6 581/3/6 586/3/6
f 585/1/6 580/1/6 586/1/6
f 581/1/6 582/1/6 587/1/6
f 586/3/6 581/3/6 587/3/6
f 582/3/6 583/3/6 588/3/6
f 587/1/6 582/1/6 588/1/6
f 583/1/6 584/1/6 589/1/6
f 588/3/6 583/3/6 589/3/6
f 589/1/6 584/1/6 590/1/6
f 591/1/6 592/1/6 597/1/6
f 592/3/6 593/3/6 598/3/6
f 597/1/6 592/1/6 598/1/6
f 593/1/6 594/1/6 599/1/6
f 598/3/6 593/3/6 599/3/6
f 594/3/6 595/3/6 600/3/6
f 599/1/6 594/1/6 600/1/6
f 595/1/6 596/1/6 601/1/6
f 600/3/6 595/3/6 601/3/6
f 601/1/6 596/1/6 602/1/6
f 603/1/6 604/1/6 609/1/6
f 604/3/6 605/3/6 610/3/6
f 609/1/6 604/1/6 610/1/6
f 605/1/6 606/1/6 611/1/6
f 610/3/6 605/3/6 611/3/6
f 606/3/6 607/3/6 612/3/6
f 611/1/6 606/1/6 612/1/6
f 607/1/6 608/1/6 613/1/6
f 612/3/6 607/3/6 613/3/6
f 613/1/6 608/1/6 614/1/6
f 615/1/6 616/1/6 621/1/6
f 616/3/6 617/3/6 622/3/6
f 621/1/6 616/1/6 622/1/6
f 617/1/6 618/1/6 623/1/6
f 622/3/6 617/3/6 623/3/6
f 618/3/6 619/3/6 624/3/6
f 623/1/6 618/1/6 624/1/6
f 619/1/6 620/1/6 625/1/6
f 624/3/6 619/3/6 625/3/6
f 625/1/6 620/1/6 626/1/6
f 627/1/6 628/1/6 633/1/6
f 628/3/6 629/3/6 634/3/6
f 633/1/6 628/1/6 634/1/6
f 629/1/6 630/1/6 635/1/6
f 634/3/6 629/3/6 635/3/6
f 630/3/6 631/3/6 636/3/6
f 635/1/6 630/1/6 636/1/6
f 631/1/6 632/1/6 637/1/6
f 636/3/6 631/3/6 637/3/6
f 637/1/6 632/1/6 638/1/6
f 639/1/6 640/1/6 645/1/6
f 640/3/6 641/3/6 646/3/6
f 645/1/6 640/1/6 646/1/6
f 641/1/6 642/1/6 647/1/6
f 646/3/6 641/3/6 647/3/6
f 642/3/6 643/3/6 648/3/6
f 647/1/6 642/1/6 648/1/6
f 643/1/6 644/1/6 649/1/6
f 648/3/6 643/3/6 649/3/6
f 649/1/6 644/1/6 650/1/6
