# MagicaVoxel @ Ephtracy

# group
o 

# material
mtllib Shovel.mtl
usemtl palette

# normals
vn -1 0 0
vn 1 0 0
vn 0 0 1
vn 0 0 -1
vn 0 -1 0
vn 0 1 0

# texcoords
vt 0.322266 0.5
vt 0.341797 0.5

# verts
v -0.1 0 0.2
v -0.1 0 -0.2
v -0.1 0.1 0.4
v -0.1 0.1 0.2
v -0.1 0.1 -0.2
v -0.1 0.1 -0.4
v -0.1 0.3 0.5
v -0.1 0.3 0.4
v -0.1 0.3 -0.4
v -0.1 0.3 -0.5
v -0.1 1.1 0.1
v -0.1 1.1 -0.1
v -0.1 1.2 0.5
v -0.1 1.2 0.1
v -0.1 1.2 -0.1
v -0.1 1.2 -0.5
v -0.1 2.7 0.5
v -0.1 2.7 0.4
v -0.1 2.7 -0.4
v -0.1 2.7 -0.5
v -0.1 2.8 0.4
v -0.1 2.8 0.1
v -0.1 2.8 -0.1
v -0.1 2.8 -0.4
v -0.1 3 0.5
v -0.1 3 -0.5
v 0.1 0.1 0.1
v 0.1 0.1 -0.1
v 0.1 0.2 0.2
v 0.1 0.2 0.1
v 0.1 0.2 -0.1
v 0.1 0.2 -0.2
v 0.1 0.3 0.3
v 0.1 0.3 0.2
v 0.1 0.3 -0.2
v 0.1 0.3 -0.3
v 0.1 0.4 0.4
v 0.1 0.4 0.3
v 0.1 0.4 -0.3
v 0.1 0.4 -0.4
v 0.1 1.1 0.1
v 0.1 1.1 -0.1
v 0.1 1.2 0.4
v 0.1 1.2 0.1
v 0.1 1.2 -0.1
v 0.1 1.2 -0.4
v 0.2 0 0.2
v 0.2 0 -0.2
v 0.2 0.1 0.4
v 0.2 0.1 0.2
v 0.2 0.1 0.1
v 0.2 0.1 -0.1
v 0.2 0.1 -0.2
v 0.2 0.1 -0.4
v 0.2 0.2 0.2
v 0.2 0.2 0.1
v 0.2 0.2 -0.1
v 0.2 0.2 -0.2
v 0.2 0.3 0.5
v 0.2 0.3 0.4
v 0.2 0.3 0.3
v 0.2 0.3 0.2
v 0.2 0.3 -0.2
v 0.2 0.3 -0.3
v 0.2 0.3 -0.4
v 0.2 0.3 -0.5
v 0.2 0.4 0.4
v 0.2 0.4 0.3
v 0.2 0.4 -0.3
v 0.2 0.4 -0.4
v 0.2 1.1 0.1
v 0.2 1.1 -0.1
v 0.2 1.2 0.5
v 0.2 1.2 0.4
v 0.2 1.2 -0.4
v 0.2 1.2 -0.5
v 0.2 2.7 0.5
v 0.2 2.7 0.4
v 0.2 2.7 -0.4
v 0.2 2.7 -0.5
v 0.2 2.8 0.4
v 0.2 2.8 0.1
v 0.2 2.8 -0.1
v 0.2 2.8 -0.4
v 0.2 3 0.5
v 0.2 3 -0.5
v -0.1 0.3 0.5
v -0.1 1.2 0.5
v -0.1 2.7 0.5
v -0.1 3 0.5
v 0.2 0.3 0.5
v 0.2 1.2 0.5
v 0.2 2.7 0.5
v 0.2 3 0.5
v -0.1 0.1 0.4
v -0.1 0.3 0.4
v 0.2 0.1 0.4
v 0.2 0.3 0.4
v -0.1 0 0.2
v -0.1 0.1 0.2
v 0.2 0 0.2
v 0.2 0.1 0.2
v -0.1 1.2 0.1
v -0.1 2.8 0.1
v 0.1 1.1 0.1
v 0.1 1.2 0.1
v 0.2 1.1 0.1
v 0.2 2.8 0.1
v 0.1 0.1 -0.1
v 0.1 0.2 -0.1
v 0.2 0.1 -0.1
v 0.2 0.2 -0.1
v 0.1 0.2 -0.2
v 0.1 0.3 -0.2
v 0.2 0.2 -0.2
v 0.2 0.3 -0.2
v 0.1 0.3 -0.3
v 0.1 0.4 -0.3
v 0.2 0.3 -0.3
v 0.2 0.4 -0.3
v -0.1 2.7 -0.4
v -0.1 2.8 -0.4
v 0.1 0.4 -0.4
v 0.1 1.2 -0.4
v 0.2 0.4 -0.4
v 0.2 1.2 -0.4
v 0.2 2.7 -0.4
v 0.2 2.8 -0.4
v -0.1 2.7 0.4
v -0.1 2.8 0.4
v 0.1 0.4 0.4
v 0.1 1.2 0.4
v 0.2 0.4 0.4
v 0.2 1.2 0.4
v 0.2 2.7 0.4
v 0.2 2.8 0.4
v 0.1 0.3 0.3
v 0.1 0.4 0.3
v 0.2 0.3 0.3
v 0.2 0.4 0.3
v 0.1 0.2 0.2
v 0.1 0.3 0.2
v 0.2 0.2 0.2
v 0.2 0.3 0.2
v 0.1 0.1 0.1
v 0.1 0.2 0.1
v 0.2 0.1 0.1
v 0.2 0.2 0.1
v -0.1 1.2 -0.1
v -0.1 2.8 -0.1
v 0.1 1.1 -0.1
v 0.1 1.2 -0.1
v 0.2 1.1 -0.1
v 0.2 2.8 -0.1
v -0.1 0 -0.2
v -0.1 0.1 -0.2
v 0.2 0 -0.2
v 0.2 0.1 -0.2
v -0.1 0.1 -0.4
v -0.1 0.3 -0.4
v 0.2 0.1 -0.4
v 0.2 0.3 -0.4
v -0.1 0.3 -0.5
v -0.1 1.2 -0.5
v -0.1 2.7 -0.5
v -0.1 3 -0.5
v 0.2 0.3 -0.5
v 0.2 1.2 -0.5
v 0.2 2.7 -0.5
v 0.2 3 -0.5
v -0.1 0 0.2
v 0.2 0 0.2
v -0.1 0 -0.2
v 0.2 0 -0.2
v -0.1 0.1 0.4
v 0.2 0.1 0.4
v -0.1 0.1 0.2
v 0.2 0.1 0.2
v -0.1 0.1 -0.2
v 0.2 0.1 -0.2
v -0.1 0.1 -0.4
v 0.2 0.1 -0.4
v -0.1 0.3 0.5
v 0.2 0.3 0.5
v -0.1 0.3 0.4
v 0.2 0.3 0.4
v -0.1 0.3 -0.4
v 0.2 0.3 -0.4
v -0.1 0.3 -0.5
v 0.2 0.3 -0.5
v 0.1 1.1 0.1
v 0.2 1.1 0.1
v 0.1 1.1 -0.1
v 0.2 1.1 -0.1
v -0.1 2.7 0.5
v 0.2 2.7 0.5
v -0.1 2.7 0.4
v 0.2 2.7 0.4
v -0.1 2.7 -0.4
v 0.2 2.7 -0.4
v -0.1 2.7 -0.5
v 0.2 2.7 -0.5
v -0.1 2.8 0.4
v 0.2 2.8 0.4
v -0.1 2.8 0.1
v 0.2 2.8 0.1
v -0.1 2.8 -0.1
v 0.2 2.8 -0.1
v -0.1 2.8 -0.4
v 0.2 2.8 -0.4
v 0.1 0.1 0.1
v 0.2 0.1 0.1
v 0.1 0.1 -0.1
v 0.2 0.1 -0.1
v 0.1 0.2 0.2
v 0.2 0.2 0.2
v 0.1 0.2 0.1
v 0.2 0.2 0.1
v 0.1 0.2 -0.1
v 0.2 0.2 -0.1
v 0.1 0.2 -0.2
v 0.2 0.2 -0.2
v 0.1 0.3 0.3
v 0.2 0.3 0.3
v 0.1 0.3 0.2
v 0.2 0.3 0.2
v 0.1 0.3 -0.2
v 0.2 0.3 -0.2
v 0.1 0.3 -0.3
v 0.2 0.3 -0.3
v 0.1 0.4 0.4
v 0.2 0.4 0.4
v 0.1 0.4 0.3
v 0.2 0.4 0.3
v 0.1 0.4 -0.3
v 0.2 0.4 -0.3
v 0.1 0.4 -0.4
v 0.2 0.4 -0.4
v -0.1 1.2 0.5
v 0.2 1.2 0.5
v 0.1 1.2 0.4
v 0.2 1.2 0.4
v -0.1 1.2 0.1
v 0.1 1.2 0.1
v -0.1 1.2 -0.1
v 0.1 1.2 -0.1
v 0.1 1.2 -0.4
v 0.2 1.2 -0.4
v -0.1 1.2 -0.5
v 0.2 1.2 -0.5
v -0.1 3 0.5
v 0.2 3 0.5
v -0.1 3 -0.5
v 0.2 3 -0.5

# faces
f 4/2/1 2/2/1 1/2/1
f 5/2/1 2/2/1 4/2/1
f 8/2/1 4/2/1 3/2/1
f 8/2/1 6/2/1 5/2/1
f 8/2/1 5/2/1 4/2/1
f 9/2/1 6/2/1 8/2/1
f 11/2/1 8/2/1 7/2/1
f 11/2/1 10/2/1 9/2/1
f 11/2/1 9/2/1 8/2/1
f 12/2/1 10/2/1 11/2/1
f 13/2/1 11/2/1 7/2/1
f 14/1/1 12/1/1 11/1/1
f 14/2/1 11/2/1 13/2/1
f 15/2/1 10/2/1 12/2/1
f 15/1/1 12/1/1 14/1/1
f 16/2/1 10/2/1 15/2/1
f 21/1/1 18/1/1 17/1/1
f 22/1/1 15/1/1 14/1/1
f 23/1/1 15/1/1 22/1/1
f 24/1/1 20/1/1 19/1/1
f 25/1/1 21/1/1 17/1/1
f 25/1/1 24/1/1 23/1/1
f 25/1/1 23/1/1 22/1/1
f 25/1/1 22/1/1 21/1/1
f 26/1/1 20/1/1 24/1/1
f 26/1/1 24/1/1 25/1/1
f 27/2/2 28/2/2 30/2/2
f 30/2/2 28/2/2 31/2/2
f 29/2/2 30/2/2 34/2/2
f 31/2/2 32/2/2 34/2/2
f 30/2/2 31/2/2 34/2/2
f 34/2/2 32/2/2 35/2/2
f 33/2/2 34/2/2 38/2/2
f 35/2/2 36/2/2 38/2/2
f 34/2/2 35/2/2 38/2/2
f 38/2/2 36/2/2 39/2/2
f 37/2/2 38/2/2 41/2/2
f 39/2/2 40/2/2 41/2/2
f 38/2/2 39/2/2 41/2/2
f 41/2/2 40/2/2 42/2/2
f 37/2/2 41/2/2 43/2/2
f 43/2/2 41/2/2 44/2/2
f 42/2/2 40/2/2 45/2/2
f 45/2/2 40/2/2 46/2/2
f 47/2/2 48/2/2 50/2/2
f 50/2/2 48/2/2 51/2/2
f 51/2/2 48/2/2 52/2/2
f 52/2/2 48/2/2 53/2/2
f 49/2/2 50/2/2 55/2/2
f 50/2/2 51/2/2 55/2/2
f 55/2/2 51/2/2 56/2/2
f 53/2/2 54/2/2 57/2/2
f 52/2/2 53/2/2 57/2/2
f 57/2/2 54/2/2 58/2/2
f 49/2/2 55/2/2 60/2/2
f 60/2/2 55/2/2 61/2/2
f 61/2/2 55/2/2 62/2/2
f 58/2/2 54/2/2 63/2/2
f 63/2/2 54/2/2 64/2/2
f 64/2/2 54/2/2 65/2/2
f 59/2/2 60/2/2 67/2/2
f 60/2/2 61/2/2 67/2/2
f 67/2/2 61/2/2 68/2/2
f 65/2/2 66/2/2 69/2/2
f 64/2/2 65/2/2 69/2/2
f 69/2/2 66/2/2 70/2/2
f 59/2/2 67/2/2 73/2/2
f 73/2/2 67/2/2 74/2/2
f 70/2/2 66/2/2 75/2/2
f 75/2/2 66/2/2 76/2/2
f 77/1/2 78/1/2 81/1/2
f 71/1/2 72/1/2 82/1/2
f 82/1/2 72/1/2 83/1/2
f 79/1/2 80/1/2 84/1/2
f 77/1/2 81/1/2 85/1/2
f 83/1/2 84/1/2 85/1/2
f 82/1/2 83/1/2 85/1/2
f 81/1/2 82/1/2 85/1/2
f 84/1/2 80/1/2 86/1/2
f 85/1/2 84/1/2 86/1/2
f 91/2/3 88/2/3 87/2/3
f 92/2/3 88/2/3 91/2/3
f 93/1/3 90/1/3 89/1/3
f 94/1/3 90/1/3 93/1/3
f 97/2/3 96/2/3 95/2/3
f 98/2/3 96/2/3 97/2/3
f 101/2/3 100/2/3 99/2/3
f 102/2/3 100/2/3 101/2/3
f 106/1/3 104/1/3 103/1/3
f 107/1/3 106/1/3 105/1/3
f 108/1/3 104/1/3 106/1/3
f 108/1/3 106/1/3 107/1/3
f 111/2/3 110/2/3 109/2/3
f 112/2/3 110/2/3 111/2/3
f 115/2/3 114/2/3 113/2/3
f 116/2/3 114/2/3 115/2/3
f 119/2/3 118/2/3 117/2/3
f 120/2/3 118/2/3 119/2/3
f 125/2/3 124/2/3 123/2/3
f 126/2/3 124/2/3 125/2/3
f 127/1/3 122/1/3 121/1/3
f 128/1/3 122/1/3 127/1/3
f 131/2/4 132/2/4 133/2/4
f 133/2/4 132/2/4 134/2/4
f 129/1/4 130/1/4 135/1/4
f 135/1/4 130/1/4 136/1/4
f 137/2/4 138/2/4 139/2/4
f 139/2/4 138/2/4 140/2/4
f 141/2/4 142/2/4 143/2/4
f 143/2/4 142/2/4 144/2/4
f 145/2/4 146/2/4 147/2/4
f 147/2/4 146/2/4 148/2/4
f 149/1/4 150/1/4 152/1/4
f 151/1/4 152/1/4 153/1/4
f 152/1/4 150/1/4 154/1/4
f 153/1/4 152/1/4 154/1/4
f 155/2/4 156/2/4 157/2/4
f 157/2/4 156/2/4 158/2/4
f 159/2/4 160/2/4 161/2/4
f 161/2/4 160/2/4 162/2/4
f 163/2/4 164/2/4 167/2/4
f 167/2/4 164/2/4 168/2/4
f 165/1/4 166/1/4 169/1/4
f 169/1/4 166/1/4 170/1/4
f 173/2/5 172/2/5 171/2/5
f 174/2/5 172/2/5 173/2/5
f 177/2/5 176/2/5 175/2/5
f 178/2/5 176/2/5 177/2/5
f 181/2/5 180/2/5 179/2/5
f 182/2/5 180/2/5 181/2/5
f 185/2/5 184/2/5 183/2/5
f 186/2/5 184/2/5 185/2/5
f 189/2/5 188/2/5 187/2/5
f 190/2/5 188/2/5 189/2/5
f 193/1/5 192/1/5 191/1/5
f 194/1/5 192/1/5 193/1/5
f 197/1/5 196/1/5 195/1/5
f 198/1/5 196/1/5 197/1/5
f 201/1/5 200/1/5 199/1/5
f 202/1/5 200/1/5 201/1/5
f 205/1/5 204/1/5 203/1/5
f 206/1/5 204/1/5 205/1/5
f 209/1/5 208/1/5 207/1/5
f 210/1/5 208/1/5 209/1/5
f 211/2/6 212/2/6 213/2/6
f 213/2/6 212/2/6 214/2/6
f 215/2/6 216/2/6 217/2/6
f 217/2/6 216/2/6 218/2/6
f 219/2/6 220/2/6 221/2/6
f 221/2/6 220/2/6 222/2/6
f 223/2/6 224/2/6 225/2/6
f 225/2/6 224/2/6 226/2/6
f 227/2/6 228/2/6 229/2/6
f 229/2/6 228/2/6 230/2/6
f 231/2/6 232/2/6 233/2/6
f 233/2/6 232/2/6 234/2/6
f 235/2/6 236/2/6 237/2/6
f 237/2/6 236/2/6 238/2/6
f 239/2/6 240/2/6 241/2/6
f 241/2/6 240/2/6 242/2/6
f 239/2/6 241/2/6 243/2/6
f 243/2/6 241/2/6 244/2/6
f 245/2/6 246/2/6 247/2/6
f 245/2/6 247/2/6 249/2/6
f 247/2/6 248/2/6 249/2/6
f 249/2/6 248/2/6 250/2/6
f 251/1/6 252/1/6 253/1/6
f 253/1/6 252/1/6 254/1/6
